<svg width="18" height="19" viewBox="0 0 18 19" fill="none" xmlns="http://www.w3.org/2000/svg">
<path d="M13.5653 9.59229C12.8284 9.59229 12.1322 9.83254 11.5521 10.2871C11.4377 10.3768 11.4176 10.5422 11.5073 10.6566C11.5969 10.7711 11.7625 10.7912 11.8769 10.7015C12.3634 10.3203 12.9473 10.1188 13.5653 10.1188C15.0767 10.1188 16.3063 11.3483 16.3063 12.8597C16.3063 14.3711 15.0767 15.6007 13.5653 15.6007C12.054 15.6007 10.8244 14.3711 10.8244 12.8597C10.8244 12.3429 10.9696 11.839 11.2443 11.4024C11.3217 11.2794 11.2847 11.1169 11.1617 11.0395C11.0387 10.962 10.8761 10.999 10.7987 11.122C10.4711 11.6427 10.2979 12.2436 10.2979 12.8597C10.2979 14.6614 11.7636 16.1272 13.5653 16.1272C15.3671 16.1272 16.8328 14.6614 16.8328 12.8597C16.8328 11.0581 15.3671 9.59229 13.5653 9.59229Z" fill="#686868"/>
<path d="M15.6307 12.989H13.8292V11.1876C13.8292 11.0422 13.7114 10.9243 13.566 10.9243C13.4206 10.9243 13.3027 11.0422 13.3027 11.1876V13.2523C13.3027 13.3977 13.4206 13.5156 13.566 13.5156H15.6307C15.7761 13.5156 15.894 13.3977 15.894 13.2523C15.894 13.107 15.7761 12.989 15.6307 12.989Z" fill="#686868"/>
<path d="M16.0854 9.21311V4.64663C16.0854 3.96045 15.5271 3.40217 14.8409 3.40217H14.2759V2.75427C14.2759 2.17627 13.8056 1.70605 13.2276 1.70605C12.6496 1.70605 12.1794 2.17627 12.1794 2.75427V3.40213H10.8193V2.75427C10.8193 2.17627 10.3491 1.70605 9.77105 1.70605C9.19304 1.70605 8.72283 2.17627 8.72283 2.75427V3.40213H7.36267V2.75427C7.36267 2.17627 6.89245 1.70605 6.31445 1.70605C5.73644 1.70605 5.26623 2.17627 5.26623 2.75427V3.40213H3.90607V2.75427C3.90607 2.17627 3.43586 1.70605 2.85785 1.70605C2.27985 1.70605 1.80953 2.17627 1.80953 2.75427V3.40213H1.24446C0.558281 3.40213 0 3.96038 0 4.64663V4.7765C0 4.92187 0.117879 5.03975 0.26325 5.03975C0.408621 5.03975 0.5265 4.92187 0.5265 4.7765V4.64663C0.5265 4.25077 0.848602 3.92867 1.24446 3.92867H1.80946C1.80946 3.92867 1.80946 4.57649 1.80946 4.57653C1.80946 5.15453 2.27967 5.62475 2.85768 5.62475C3.43568 5.62475 3.90589 5.15453 3.90589 4.57649V3.92867H5.26605C5.26605 3.92867 5.26605 4.57649 5.26605 4.57653C5.26605 5.15453 5.73627 5.62475 6.31427 5.62475C6.89228 5.62475 7.36249 5.15453 7.36249 4.57649V3.92867H8.72265C8.72265 3.92867 8.72265 4.57649 8.72265 4.57653C8.72265 5.15453 9.19287 5.62475 9.77087 5.62475C10.3489 5.62475 10.8191 5.15453 10.8191 4.57649V3.92867H12.1793C12.1793 3.92867 12.1793 4.57649 12.1793 4.57653C12.1793 5.15453 12.6495 5.62475 13.2275 5.62475C13.8055 5.62475 14.2757 5.15453 14.2757 4.57649V3.92867H14.8407C15.2366 3.92867 15.5587 4.25077 15.5587 4.64663V6.50464H0.5265V5.8295C0.5265 5.68412 0.408621 5.56625 0.26325 5.56625C0.117879 5.56625 0 5.68409 0 5.8295V14.9146C0 15.6009 0.558281 16.1591 1.24446 16.1591H10.6064C11.3919 16.8644 12.4295 17.2941 13.5657 17.2941C14.5145 17.2941 15.4196 16.9985 16.1832 16.4391C16.3005 16.3532 16.326 16.1885 16.24 16.0712C16.1541 15.9539 15.9893 15.9285 15.8721 16.0144C15.1993 16.5072 14.4018 16.7676 13.5657 16.7676C11.4109 16.7676 9.65791 15.0146 9.65791 12.8598C9.65791 10.7051 11.4109 8.95207 13.5657 8.95207C13.9556 8.95207 14.3439 9.0104 14.7165 9.12508C14.7239 9.12733 14.7312 9.12968 14.7386 9.132C16.322 9.63133 17.4735 11.1136 17.4735 12.8598C17.4735 13.7608 17.1594 14.64 16.5892 15.3355C16.497 15.4479 16.5134 15.6138 16.6258 15.706C16.7383 15.7982 16.9042 15.7817 16.9963 15.6693C17.6436 14.88 18 13.8822 18 12.8598C18 11.35 17.2413 10.0142 16.0854 9.21311ZM3.37939 4.57649C3.37939 4.86418 3.14536 5.09821 2.85768 5.09821C2.56999 5.09821 2.33596 4.86421 2.33596 4.57649V2.75427C2.33596 2.46659 2.56996 2.23255 2.85768 2.23255C3.14536 2.23255 3.37939 2.46655 3.37939 2.75427V4.57649ZM6.83603 4.57649C6.83603 4.86418 6.60199 5.09821 6.31431 5.09821C6.02662 5.09821 5.79259 4.86421 5.79259 4.57649V2.75427C5.79259 2.46659 6.02662 2.23255 6.31431 2.23255C6.60199 2.23255 6.83603 2.46655 6.83603 2.75427V4.57649ZM10.2927 4.57649C10.2927 4.86418 10.0587 5.09821 9.77098 5.09821C9.48329 5.09821 9.24926 4.86421 9.24926 4.57649V2.75427C9.24926 2.46659 9.48329 2.23255 9.77098 2.23255C10.0587 2.23255 10.2927 2.46655 10.2927 2.75427V4.57649ZM13.7493 4.57649C13.7493 4.86418 13.5153 5.09821 13.2276 5.09821C12.9399 5.09821 12.7059 4.86421 12.7059 4.57649V2.75427C12.7059 2.46659 12.9399 2.23255 13.2276 2.23255C13.5153 2.23255 13.7493 2.46655 13.7493 2.75427V4.57649ZM6.75004 7.03114H9.33529V9.54727H6.75004V7.03114ZM3.11175 15.6326H1.24446C0.848602 15.6326 0.5265 15.3105 0.5265 14.9146V13.1164H3.11171L3.11175 15.6326ZM3.11175 12.5899H0.5265V10.0738H3.11171L3.11175 12.5899ZM3.11175 9.54727H0.5265V7.03114H3.11171L3.11175 9.54727ZM3.63825 10.0738H6.22346V12.5899H3.63825V10.0738ZM6.22354 15.6326H3.63832V13.1165H6.22354V15.6326ZM6.22354 9.54727H3.63832V7.03114H6.22354V9.54727ZM6.75 10.0738H9.33525V11.53C9.22887 11.8678 9.16203 12.2229 9.13989 12.59H6.75V10.0738ZM10.1041 15.6326H6.75004V13.1165H9.13883C9.191 14.0457 9.52597 14.9155 10.1041 15.6326ZM9.86182 10.4248V10.0738H10.1188C10.0276 10.1864 9.94184 10.3036 9.86182 10.4248ZM12.447 8.56862C11.7597 8.74792 11.1369 9.08855 10.6214 9.54727H9.86182V7.03114H12.447V8.56862ZM15.5588 8.89786C15.3109 8.77295 15.0523 8.67248 14.7864 8.59647C14.7807 8.59485 14.775 8.59323 14.7694 8.59162C14.3784 8.48116 13.9721 8.4255 13.5658 8.4255C13.365 8.42554 13.1674 8.43918 12.9736 8.46516V7.03107H15.5588V8.89786Z" fill="#686868"/>
</svg>
