<svg width="17" height="17" viewBox="0 0 17 17" fill="none" xmlns="http://www.w3.org/2000/svg">
<circle cx="8.5" cy="8.5" r="8.5" fill="#F9F4EE"/>
<path d="M8.49989 4C8.40498 4 8.31397 4.0377 8.24686 4.10481C8.17975 4.17192 8.14205 4.26293 8.14205 4.35784V11.3665L6.60621 9.83061C6.53872 9.76543 6.44833 9.72936 6.3545 9.73018C6.26068 9.73099 6.17093 9.76863 6.10458 9.83497C6.03824 9.90132 6.00061 9.99107 5.99979 10.0849C5.99897 10.1787 6.03504 10.2691 6.10023 10.3366L8.24725 12.4836C8.28017 12.5167 8.31931 12.543 8.36243 12.5609C8.40554 12.5789 8.45177 12.5881 8.49846 12.5881H8.49989C8.54641 12.5881 8.59293 12.5788 8.63658 12.5602C8.67996 12.5424 8.71937 12.5161 8.75252 12.4829L10.8996 10.3359C10.9647 10.2684 11.0008 10.178 11 10.0842C10.9992 9.99035 10.9615 9.9006 10.8952 9.83426C10.8288 9.76791 10.7391 9.73028 10.6453 9.72946C10.5514 9.72865 10.4611 9.76471 10.3936 9.8299L8.85773 11.3665V4.35784C8.85773 4.26293 8.82003 4.17192 8.75292 4.10481C8.68581 4.0377 8.59479 4 8.49989 4Z" fill="#0F172A"/>
</svg>
