<svg width="56" height="56" viewBox="0 0 56 56" fill="none" xmlns="http://www.w3.org/2000/svg">
<path d="M26.6221 0.262501C25.3971 0.831251 24.719 1.91406 24.719 3.28125C24.719 5.20625 26.0752 6.5625 28.0002 6.5625C29.9252 6.5625 31.2815 5.20625 31.2815 3.28125C31.2815 1.35625 29.9252 4.76837e-07 28.0002 4.76837e-07C27.3659 4.76837e-07 27.0487 0.0656257 26.6221 0.262501ZM28.7002 2.58125C28.9081 2.78906 28.9846 2.98594 28.9846 3.28125C28.9846 3.57656 28.9081 3.77344 28.7002 3.98125C28.0659 4.60469 27.0159 4.16719 27.0159 3.28125C27.0159 2.72344 27.4424 2.29688 28.0002 2.29688C28.2956 2.29688 28.4924 2.37344 28.7002 2.58125Z" fill="#1E1E1E"/>
<path d="M33.9284 3.17259C33.5784 3.31478 33.3159 3.93822 33.4034 4.40853C33.5019 4.94447 33.8409 5.17415 35.0878 5.57884C42.0112 7.83197 48.1691 13.9898 50.4222 20.9132C50.8269 22.1601 51.0566 22.4992 51.5925 22.5976C52.3472 22.7398 52.9378 22.2367 52.9378 21.4382C52.9378 20.9023 52.0847 18.5945 51.2972 17.0085C48.2128 10.7742 42.4706 5.64447 36.1597 3.50072C34.8581 3.06322 34.3878 2.99759 33.9284 3.17259Z" fill="#1E1E1E"/>
<path d="M20.6284 3.56563C20.3987 3.79531 20.344 3.95938 20.344 4.375C20.344 4.79063 20.3987 4.95469 20.6284 5.18438C20.8581 5.41406 21.0221 5.46875 21.4377 5.46875C21.8534 5.46875 22.0174 5.41406 22.2471 5.18438C22.4768 4.95469 22.5315 4.79063 22.5315 4.375C22.5315 3.95938 22.4768 3.79531 22.2471 3.56563C22.0174 3.33594 21.8534 3.28125 21.4377 3.28125C21.0221 3.28125 20.8581 3.33594 20.6284 3.56563Z" fill="#1E1E1E"/>
<path d="M15.6407 5.38104C9.95318 8.67323 5.37037 14.1967 3.40162 20.1139C3.04068 21.2076 2.99693 21.5795 3.17193 22.0279C3.41256 22.6732 4.57193 22.8154 5.02037 22.2467C5.14068 22.1045 5.38131 21.5029 5.57818 20.9123C6.02662 19.5123 7.35006 16.8435 8.25787 15.4764C10.5657 12.0201 13.4313 9.34041 17.0079 7.27323C18.1672 6.60604 18.3204 6.46385 18.4188 5.9826C18.561 5.29354 18.036 4.70291 17.2922 4.70291C16.8766 4.71385 16.5813 4.83416 15.6407 5.38104Z" fill="#1E1E1E"/>
<path d="M25.2219 9.24269C18.1782 10.3802 12.1188 15.5318 9.9641 22.2036C9.6141 23.2755 9.54847 23.9208 9.73441 24.2927C9.90941 24.6099 10.4782 24.8614 10.8719 24.7849C11.4844 24.6646 11.6813 24.4021 12.086 23.1552C12.611 21.5146 13.2125 20.2786 14.1969 18.813C16.5703 15.2693 20.4641 12.6224 24.6641 11.6818C25.9328 11.4083 28.8094 11.2989 30.1 11.4739C37.5047 12.5349 43.4 18.3974 44.5047 25.7802C44.6578 26.7864 44.6578 29.2146 44.5047 30.2208C43.9688 33.8193 42.3063 37.0896 39.6922 39.6927C37.0453 42.3396 33.7641 44.0021 30.1 44.5271C28.8094 44.7021 25.9328 44.5927 24.6641 44.3193C18.7578 42.9958 13.9344 38.5989 12.086 32.8458C11.6703 31.5443 11.5172 31.3364 10.8719 31.2161C10.4782 31.1396 9.90941 31.3911 9.73441 31.7083C9.41722 32.2989 9.8766 34.0052 10.9375 36.1489C12.8625 40.0755 15.7828 43.0068 19.7422 44.9646C21.3938 45.7849 22.6407 46.2333 24.3469 46.5943C25.8891 46.9333 29.0282 47.0208 30.625 46.7693C34.7047 46.1239 38.4563 44.2318 41.311 41.3661C44.3407 38.3364 46.1125 34.8802 46.7578 30.6911C47.0203 29.0396 46.9328 25.9114 46.5938 24.3364C45.1391 17.5989 40.25 12.1302 33.7422 9.96457C31.85 9.34113 30.7782 9.16613 28.3828 9.12238C26.8407 9.10051 25.911 9.13332 25.2219 9.24269Z" fill="#1E1E1E"/>
<path d="M26.25 16.2208C24.9266 16.6692 23.8766 17.5442 23.1875 18.7583C22.7281 19.5677 22.5313 20.3771 22.5313 21.438C22.5313 22.4989 22.7281 23.3083 23.1875 24.1177C23.8766 25.3317 24.9375 26.2067 26.2281 26.6442L26.9172 26.8849L25.5172 26.9396C23.286 27.0161 21.9297 27.6067 20.3875 29.138C19.425 30.1005 18.9656 30.8333 18.5172 32.0692C18.2547 32.813 18.2219 33.0317 18.1781 35.0552L18.1344 37.2536L18.4406 37.5489L18.736 37.8442H28H37.2641L37.5594 37.5489L37.8656 37.2536L37.8219 35.0552C37.7781 33.0317 37.7453 32.813 37.4828 32.0692C37.0344 30.8333 36.575 30.1005 35.6125 29.138C34.0703 27.6067 32.7141 27.0161 30.4828 26.9396L29.0828 26.8849L29.7719 26.6442C31.0625 26.2067 32.1235 25.3317 32.8125 24.1177C33.2719 23.3083 33.4688 22.4989 33.4688 21.438C33.4688 19.9942 33.0531 18.8567 32.1016 17.7521C31.5766 17.1396 30.5047 16.4505 29.6516 16.188C28.6672 15.8817 27.2016 15.8927 26.25 16.2208ZM29.2578 18.5286C30.0563 18.9005 30.461 19.2833 30.8328 20.038C31.6313 21.6349 31.0188 23.4724 29.4 24.2708C27.2891 25.3317 24.8281 23.8114 24.8281 21.438C24.8281 20.1802 25.4625 19.1739 26.6 18.6052C27.475 18.1677 28.4266 18.1349 29.2578 18.5286ZM31.7188 29.4005C32.7578 29.7724 33.2391 30.0677 33.961 30.7896C35.0328 31.8614 35.4703 32.8896 35.6016 34.6067L35.6781 35.6567H34.5735H33.4688V34.3005C33.4688 32.988 33.4578 32.9442 33.1844 32.6599C32.9547 32.4302 32.7906 32.3755 32.375 32.3755C31.9594 32.3755 31.7953 32.4302 31.5656 32.6599C31.2922 32.9442 31.2813 32.988 31.2813 34.3005V35.6567H28H24.7188V34.3005C24.7188 32.988 24.7078 32.9442 24.4344 32.6599C24.2047 32.4302 24.0406 32.3755 23.625 32.3755C23.2094 32.3755 23.0453 32.4302 22.8156 32.6599C22.5422 32.9442 22.5313 32.988 22.5313 34.3005V35.6567H21.4266H20.3219L20.3985 34.6067C20.5297 32.8896 20.9672 31.8614 22.0391 30.7896C22.9797 29.8489 23.9203 29.3786 25.211 29.2036C25.5719 29.1489 27.0485 29.1271 28.4922 29.1489C30.7781 29.1708 31.1938 29.2036 31.7188 29.4005Z" fill="#1E1E1E"/>
<path d="M1.90313 24.9813C0.678125 25.55 0 26.6328 0 28C0 29.925 1.35625 31.2812 3.28125 31.2812C4.64844 31.2812 5.73125 30.6031 6.3 29.3781C6.66094 28.5906 6.66094 27.4094 6.3 26.6219C5.73125 25.3969 4.64844 24.7188 3.28125 24.7188C2.64688 24.7188 2.32969 24.7844 1.90313 24.9813ZM3.98125 27.3C4.60469 27.9344 4.16719 28.9844 3.28125 28.9844C2.98594 28.9844 2.78906 28.9078 2.58125 28.7C1.95781 28.0656 2.39531 27.0156 3.28125 27.0156C3.57656 27.0156 3.77344 27.0922 3.98125 27.3Z" fill="#1E1E1E"/>
<path d="M51.3406 24.9813C50.1156 25.55 49.4375 26.6328 49.4375 28C49.4375 29.925 50.7937 31.2812 52.7187 31.2812C54.6437 31.2812 56 29.925 56 28C56 26.075 54.6437 24.7188 52.7187 24.7188C52.0844 24.7188 51.7672 24.7844 51.3406 24.9813ZM53.4187 27.3C54.0422 27.9344 53.6047 28.9844 52.7187 28.9844C52.4234 28.9844 52.2266 28.9078 52.0187 28.7C51.8109 28.4922 51.7344 28.2953 51.7344 28C51.7344 27.7047 51.8109 27.5078 52.0187 27.3C52.2266 27.0922 52.4234 27.0156 52.7187 27.0156C53.0141 27.0156 53.2109 27.0922 53.4187 27.3Z" fill="#1E1E1E"/>
<path d="M9.36226 27.1906C9.13257 27.4203 9.07788 27.5844 9.07788 28C9.07788 28.7219 9.44976 29.0938 10.1716 29.0938C10.5873 29.0938 10.7513 29.0391 10.981 28.8094C11.3857 28.3938 11.3857 27.6063 10.981 27.1906C10.7513 26.9609 10.5873 26.9062 10.1716 26.9062C9.75601 26.9062 9.59194 26.9609 9.36226 27.1906Z" fill="#1E1E1E"/>
<path d="M3.57734 33.5237C2.93203 33.8846 2.92109 34.4424 3.50078 36.1596C5.64453 42.4706 10.7742 48.2127 17.0086 51.2971C18.5945 52.0846 20.9023 52.9377 21.4383 52.9377C22.2367 52.9377 22.7398 52.3471 22.5977 51.5924C22.4992 51.0565 22.1602 50.8268 20.9133 50.4221C13.9789 48.1581 7.83203 42.0112 5.57891 35.0659C5.39297 34.4862 5.13047 33.8846 4.99922 33.7315C4.69297 33.3815 4.01484 33.2831 3.57734 33.5237Z" fill="#1E1E1E"/>
<path d="M51.3295 33.4687C50.9795 33.6109 50.7936 33.95 50.4107 35.1203C49.9623 36.4984 48.6389 39.1781 47.742 40.5234C45.4342 43.9797 42.5686 46.6594 38.992 48.7266C37.8326 49.3937 37.6795 49.5359 37.5811 50.0172C37.4389 50.6953 37.9639 51.2969 38.6967 51.2969C39.0795 51.2969 39.3967 51.1656 40.3373 50.6297C46.0029 47.3703 50.6295 41.8141 52.5982 35.8859C52.9592 34.7922 53.0029 34.4203 52.8279 33.9719C52.642 33.4906 51.9092 33.2391 51.3295 33.4687Z" fill="#1E1E1E"/>
<path d="M26.6221 49.7C25.3971 50.2687 24.719 51.3516 24.719 52.7187C24.719 54.6437 26.0752 56 28.0002 56C29.9252 56 31.2815 54.6437 31.2815 52.7187C31.2815 51.3516 30.6034 50.2687 29.3784 49.7C28.5909 49.3391 27.4096 49.3391 26.6221 49.7ZM28.7002 52.0187C28.9081 52.2266 28.9846 52.4234 28.9846 52.7187C28.9846 53.6047 27.9346 54.0422 27.3002 53.4187C26.6768 52.7844 27.1143 51.7344 28.0002 51.7344C28.2956 51.7344 28.4924 51.8109 28.7002 52.0187Z" fill="#1E1E1E"/>
<path d="M33.7529 50.8159C33.5232 51.0456 33.4685 51.2096 33.4685 51.6252C33.4685 52.3471 33.8404 52.719 34.5623 52.719C35.2841 52.719 35.656 52.3471 35.656 51.6252C35.656 50.9034 35.2841 50.5315 34.5623 50.5315C34.1466 50.5315 33.9826 50.5862 33.7529 50.8159Z" fill="#1E1E1E"/>
</svg>
