<svg width="56" height="56" viewBox="0 0 56 56" fill="none" xmlns="http://www.w3.org/2000/svg">
<g clip-path="url(#clip0_784_1196)">
<path d="M2.63563 2.47182C1.56376 2.7562 0.754382 3.4562 0.273132 4.49526L-0.000305176 5.10776L0.0215698 23.5812L0.0543823 42.0546L0.305945 42.5249C0.89657 43.6296 1.83719 44.3078 3.06219 44.5046C3.52157 44.5812 7.30594 44.6249 13.7591 44.6249H23.7341V46.364V48.1031L22.6184 48.1468C21.3059 48.1906 20.7044 48.4203 19.9606 49.164C19.2059 49.9078 18.9872 50.4984 18.9434 51.8984C18.8997 52.9812 18.9216 53.1343 19.1184 53.3749L19.3372 53.6484L27.8247 53.6812C37.0888 53.714 36.8809 53.7249 37.0341 53.1015C37.0669 52.9484 37.0888 52.3468 37.0559 51.7562C37.0122 50.4765 36.7497 49.864 35.9622 49.0874C35.2403 48.3874 34.5075 48.1249 33.2497 48.1249H32.2653V46.3749V44.6249H42.2513C48.6934 44.6249 52.4778 44.5812 52.9372 44.5046C54.1622 44.3078 55.1028 43.6296 55.6934 42.5249L55.945 42.0546L55.9778 23.5921L55.9997 5.11869L55.7153 4.47338C55.3544 3.68588 54.5013 2.85463 53.7356 2.55932C53.2325 2.36245 52.2809 2.35151 28.2184 2.32963C6.58407 2.30776 3.14969 2.32963 2.63563 2.47182ZM53.1231 4.36401C53.4075 4.49526 53.6919 4.74682 53.8888 5.04213L54.195 5.51244L54.2278 21.514L54.2497 37.5156H27.9997H1.74969V21.8421C1.76063 13.2343 1.80438 5.96088 1.84813 5.69838C1.96844 5.07494 2.25282 4.70307 2.84344 4.39682L3.32469 4.15619H27.9997C51.9966 4.15619 52.6747 4.16713 53.1231 4.36401ZM54.2497 40.0312C54.2497 41.5734 53.8013 42.3828 52.795 42.6453C52.0731 42.8203 3.92626 42.8203 3.20438 42.6453C2.19813 42.3828 1.74969 41.5734 1.74969 40.0312V39.3749H27.9997H54.2497V40.0312ZM30.4059 46.3749V48.1249H27.9997H25.5934V46.3749V44.6249H27.9997H30.4059V46.3749ZM34.3544 50.2359C34.8247 50.5531 35.2184 51.1328 35.2184 51.5265V51.8437H27.9997H20.7809V51.5265C20.7809 51.1328 21.1747 50.5531 21.645 50.2359L22.0169 49.9843H27.9997H33.9825L34.3544 50.2359Z" fill="#1E1E1E"/>
<path d="M43.2567 6.68272C42.8957 6.89053 42.7645 7.13116 42.7645 7.55772C42.7645 8.08272 43.1036 8.36709 43.8692 8.46553C44.427 8.5421 44.4379 8.55303 44.2301 8.74991C43.7707 9.18741 39.7457 12.5999 39.6254 12.6546C39.5598 12.6765 38.0286 12.053 36.2348 11.2546C32.8223 9.73428 32.4614 9.63584 32.0129 10.0405C31.8817 10.1499 30.3723 11.4187 28.6551 12.8515C24.6301 16.2202 24.7176 16.1327 24.7176 16.6468C24.7176 17.314 25.3301 17.7515 25.9207 17.5108C26.0739 17.4562 27.6926 16.1546 29.5192 14.6124L32.8332 11.8233L33.1832 11.9655C33.3692 12.0421 34.8676 12.7093 36.5192 13.4421C38.1707 14.164 39.6582 14.7655 39.8223 14.7655C40.052 14.7655 40.7082 14.2624 42.7864 12.4905C44.252 11.2437 45.4989 10.1827 45.5645 10.1499C45.6411 10.0952 45.6629 10.2483 45.6301 10.6421C45.5973 11.1015 45.6301 11.2655 45.8161 11.4952C46.2207 12.0093 46.9536 11.9983 47.2926 11.4624C47.4457 11.2218 47.6754 9.25303 47.7082 8.00616C47.7082 7.52491 47.6645 7.37178 47.4567 7.16397C47.227 6.93428 47.0192 6.89053 45.8817 6.7921C45.1598 6.72647 44.3286 6.64991 44.0223 6.61709C43.7161 6.58428 43.377 6.61709 43.2567 6.68272Z" fill="#1E1E1E"/>
<path d="M17.7504 7.04424L17.4442 7.30674L17.4114 9.80049C17.3676 12.5349 17.4114 12.9286 17.7286 13.2458C17.9254 13.4427 18.1114 13.4536 20.8239 13.4536H23.7223L23.952 13.1474C24.1489 12.8958 24.1817 12.7646 24.127 12.3052C23.9411 10.8505 23.0114 9.15518 21.9176 8.2583C21.2067 7.67861 20.2004 7.17549 19.3036 6.9458C18.4067 6.71611 18.1114 6.73799 17.7504 7.04424ZM20.8895 9.90986C21.1739 10.1724 21.5676 10.6864 21.7536 11.0474L22.1036 11.7036H20.6817H19.2489V10.2817V8.85986L19.8067 9.14424C20.1239 9.29736 20.6051 9.64736 20.8895 9.90986Z" fill="#1E1E1E"/>
<path d="M15.4759 7.89741C15.1806 7.9521 14.5134 8.19272 13.9993 8.44429C12.3149 9.25366 11.0352 10.8505 10.5977 12.688C10.5212 13.0162 10.4665 13.7271 10.4665 14.274C10.5102 18.3974 14.404 21.3724 18.4181 20.3443C19.9712 19.9505 21.3165 19.0208 22.1587 17.7521C22.6509 17.0083 23.1868 15.5427 23.1868 14.9083C23.1868 13.8255 23.0665 13.7818 19.7962 13.7818H17.1712V11.113C17.1712 9.64741 17.1384 8.35679 17.1056 8.25835C17.0181 8.05054 16.4931 7.76616 16.2196 7.7771C16.1102 7.78804 15.7821 7.83179 15.4759 7.89741ZM15.3337 12.5896C15.3665 15.2037 15.3665 15.2255 15.629 15.4333C15.8587 15.6302 16.0884 15.6412 18.4946 15.6412C19.9274 15.6412 21.1087 15.663 21.1087 15.6958C21.1087 15.9255 20.5509 16.7677 20.0587 17.2927C18.2977 19.1302 15.4977 19.1521 13.6712 17.3474C11.6149 15.324 11.954 11.999 14.3602 10.3802C14.7212 10.1505 15.0712 9.95366 15.1587 9.95366C15.2681 9.95366 15.3118 10.4787 15.3337 12.5896Z" fill="#1E1E1E"/>
<path d="M43.6292 12.7861L43.312 13.1033V20.333V27.5627H42.7651H42.2182V22.7721V17.9705L41.9667 17.7408C41.726 17.5111 41.6167 17.5002 39.4948 17.5002C37.2963 17.5002 37.2854 17.5002 37.0229 17.7736L36.7495 18.0361V22.8049V27.5627H36.2026H35.6557V21.5033C35.6557 15.7064 35.6448 15.433 35.4479 15.1924C35.2401 14.9299 35.1963 14.9299 32.987 14.8971L30.7338 14.8643L30.4604 15.1377L30.187 15.4111V21.4924V27.5627H29.6401H29.0932V23.9533V20.333L28.8198 20.0705C28.5573 19.7971 28.5463 19.7971 26.3807 19.7971C24.3463 19.7971 24.1823 19.808 23.9088 20.0268L23.6245 20.2455V23.9533V27.6611L23.1651 27.8689C22.6291 28.0986 22.0385 28.733 21.787 29.3018C21.6995 29.5314 21.601 30.1877 21.5682 30.8986C21.5135 32.2877 21.6666 32.8455 22.1479 33.0314C22.3448 33.108 27.1573 33.1299 36.1479 33.1189L49.8526 33.0861L50.1479 32.8127C50.4323 32.5393 50.4323 32.5393 50.3995 31.0627C50.3557 29.3236 50.1588 28.7549 49.3932 28.1971L48.9448 27.8799L48.8901 20.4314L48.8354 12.9939L48.5292 12.7314C48.2229 12.4689 48.1901 12.4689 46.0901 12.4689H43.9463L43.6292 12.7861ZM47.0307 20.9455V27.5627H46.101H45.1713V20.9455V14.3283H46.101H47.0307V20.9455ZM33.7963 22.1486V27.5627H32.9213H32.0463V22.1486V16.7346H32.9213H33.7963V22.1486ZM40.3588 23.4611V27.5627H39.4838H38.6088V23.4611V19.3596H39.4838H40.3588V23.4611ZM27.2338 24.6096V27.5627H26.3588H25.4838V24.6096V21.6564H26.3588H27.2338V24.6096ZM48.2995 29.783C48.5073 30.0236 48.562 30.2096 48.562 30.6908V31.2814H35.9838H23.4057V30.8549C23.4057 30.2533 23.6026 29.7721 23.9416 29.5861C24.1823 29.4549 25.9323 29.433 36.126 29.4549L48.037 29.4768L48.2995 29.783Z" fill="#1E1E1E"/>
<path d="M11.8452 21.481C11.703 21.5903 11.528 21.9185 11.4186 22.3122C11.3202 22.6731 11.178 22.9685 11.1014 22.9685C11.0248 22.9685 10.7514 22.7935 10.4889 22.5856C9.71234 21.9731 9.40609 22.0278 8.2139 23.0122C7.04359 23.9856 6.95609 24.2044 7.37172 25.0356C7.76547 25.7903 7.74359 25.8888 7.19672 25.9763C5.8514 26.1731 5.81859 26.2169 5.66547 27.9341C5.52328 29.4544 5.5889 29.6294 6.47484 29.9138C7.37172 30.2091 7.39359 30.2419 6.89047 30.8653C6.25609 31.6638 6.2889 31.9372 7.12015 32.9653C8.23578 34.3544 8.43265 34.4419 9.44984 33.9388C9.7889 33.7747 10.0842 33.6763 10.117 33.7091C10.1608 33.7419 10.2264 34.081 10.2811 34.4638C10.4123 35.3606 10.5983 35.5356 11.5498 35.656C12.5561 35.7872 13.5295 35.7872 13.7811 35.656C13.8905 35.6013 14.0873 35.2294 14.2186 34.8356C14.3498 34.4419 14.503 34.1247 14.5577 34.1247C14.6233 34.1247 14.8967 34.2997 15.1702 34.5075C15.9467 35.0981 16.2967 35.0544 17.303 34.2231C17.7405 33.8622 18.1889 33.4685 18.2983 33.3372C18.5608 33.031 18.528 32.5716 18.2108 31.9263C18.0577 31.631 17.9592 31.3356 17.992 31.281C18.0248 31.2263 18.342 31.1497 18.6811 31.106C19.0311 31.0731 19.4248 30.9528 19.5561 30.8544C19.8295 30.6575 19.9936 29.8919 20.0373 28.5903C20.0811 27.6497 19.9389 27.4419 19.0967 27.1685C18.7905 27.07 18.4952 26.9497 18.4405 26.895C18.3858 26.8403 18.5061 26.5888 18.7467 26.2825C19.4467 25.3856 19.4248 25.2216 18.4405 24.0075C17.3905 22.7169 17.2373 22.6622 16.2967 23.1325C15.5092 23.5372 15.4545 23.5153 15.378 22.7169C15.2467 21.6013 15.0717 21.4919 13.267 21.3825C12.2827 21.3169 12.042 21.3388 11.8452 21.481ZM13.3873 23.2528C13.4748 23.2856 13.5842 23.4935 13.617 23.7122C13.7483 24.5106 13.8686 24.6528 14.6889 25.0794C15.1264 25.2981 15.542 25.4841 15.6077 25.4841C15.6842 25.4841 15.9686 25.3747 16.242 25.2435C16.6795 25.0247 16.7561 25.0247 16.8983 25.1669C17.0514 25.3091 17.0295 25.3747 16.7342 25.7685C16.3623 26.2716 16.3295 26.5997 16.603 27.4747C16.8436 28.2513 17.0514 28.481 17.6748 28.656C18.0577 28.7653 18.1561 28.8419 18.1561 29.0388C18.1561 29.2575 18.0795 29.3013 17.5873 29.3669C16.8873 29.4653 16.6905 29.6185 16.2858 30.4278C15.9139 31.1716 15.892 31.4669 16.1983 32.0575C16.4061 32.4841 16.4061 32.506 16.2311 32.6481C16.067 32.7685 15.9686 32.7356 15.6077 32.4731C15.0936 32.1013 14.7436 32.0794 13.8795 32.3528C13.0811 32.5935 12.9608 32.7138 12.742 33.37C12.5889 33.8294 12.5123 33.9169 12.3264 33.8841C12.1295 33.8622 12.0748 33.7528 12.0311 33.3591C11.9436 32.6372 11.7795 32.4294 11.0467 32.0575C10.2811 31.6638 9.88734 31.6419 9.30765 31.9263C8.99047 32.0903 8.85922 32.1122 8.76078 32.0138C8.58578 31.8388 8.60765 31.7513 8.90297 31.3575C9.30765 30.8216 9.34047 30.5263 9.07797 29.7388C8.7389 28.7435 8.70609 28.6888 8.09359 28.4919C7.64515 28.3497 7.54672 28.2622 7.54672 28.0653C7.54672 27.8466 7.62328 27.8028 8.0389 27.7372C8.76078 27.6388 8.90297 27.5403 9.34047 26.7419C9.79984 25.8997 9.81078 25.7685 9.49359 25.1013C9.30765 24.7075 9.28578 24.5763 9.38422 24.4778C9.49359 24.3685 9.58109 24.3794 9.82172 24.5216C10.642 25.0466 10.7842 25.0685 11.5717 24.8278C12.4795 24.5435 12.753 24.3685 12.8405 24.0185C12.9389 23.6247 13.1139 23.1872 13.1686 23.1872C13.1905 23.1872 13.2889 23.22 13.3873 23.2528Z" fill="#1E1E1E"/>
<path d="M11.637 25.5503C10.1276 26.0863 9.25265 28.0222 9.77765 29.6191C10.0183 30.341 10.6964 31.0847 11.4292 31.4456C11.9651 31.7081 12.1183 31.741 12.9276 31.6972C13.9776 31.6535 14.4917 31.4456 15.1261 30.8113C15.7605 30.1769 16.012 29.5316 16.012 28.5472C16.012 27.9238 15.9464 27.6066 15.7605 27.2128C15.1917 26.0316 14.1308 25.3753 12.8511 25.3863C12.4355 25.3863 11.8776 25.4628 11.637 25.5503ZM13.7261 27.5628C13.8792 27.705 14.0542 28.0113 14.1198 28.23C14.2292 28.5691 14.2183 28.7003 14.0433 29.0503C13.7808 29.5863 13.3542 29.8816 12.8839 29.8816C12.0636 29.8816 11.4839 29.3019 11.4839 28.4816C11.4839 28.1644 11.5714 28.0003 11.9214 27.6503C12.337 27.2238 12.3808 27.2128 12.9058 27.2566C13.2886 27.3003 13.5511 27.3988 13.7261 27.5628Z" fill="#1E1E1E"/>
<path d="M27.5943 40.1411C27.2771 40.2724 27.124 40.5786 27.124 41.1146C27.124 41.6177 27.4959 42.0005 27.999 42.0005C28.1631 42.0005 28.4256 41.9021 28.5896 41.7708C28.8193 41.5958 28.874 41.4536 28.874 41.0708C28.874 40.7864 28.7975 40.513 28.6881 40.3708C28.4584 40.1083 27.9443 39.988 27.5943 40.1411Z" fill="#1E1E1E"/>
</g>
<defs>
<clipPath id="clip0_784_1196">
<rect width="56" height="56" fill="white"/>
</clipPath>
</defs>
</svg>
