<svg width="56" height="56" viewBox="0 0 56 56" fill="none" xmlns="http://www.w3.org/2000/svg">
<g clip-path="url(#clip0_784_1190)">
<path d="M13.9777 0.3167C11.6042 1.08232 10.0839 3.57607 10.4886 6.03701C10.6527 7.01045 11.123 8.02764 11.7355 8.70576L12.2058 9.21982L11.5058 9.58076C9.04486 10.8604 7.31673 13.3104 6.89017 16.1214C6.78079 16.8651 6.79173 16.9964 6.97767 17.4339C7.36048 18.287 7.17454 18.2651 13.0152 18.2651H18.1558V18.8776C18.1558 19.6214 18.4292 20.1354 18.9652 20.387C19.2933 20.5401 20.2667 20.562 27.9995 20.562C35.7324 20.562 36.7058 20.5401 37.0339 20.387C37.5699 20.1354 37.8433 19.6214 37.8433 18.8776V18.2651H42.9839C48.5292 18.2651 48.5402 18.2651 48.912 17.6964C49.1855 17.2808 49.2292 16.887 49.098 16.0667C48.6714 13.3104 46.9324 10.8495 44.4933 9.58076L43.7933 9.21982L44.2636 8.70576C46.3745 6.36514 45.8495 2.5917 43.1808 0.863575C42.273 0.283888 41.387 0.0760746 40.0745 0.130762C39.1011 0.163574 38.9042 0.218262 38.1605 0.579199C36.7495 1.25732 35.6558 2.63545 35.3386 4.13389C34.9886 5.78545 35.448 7.50264 36.5527 8.70576C36.8042 8.96826 36.9792 9.20889 36.9574 9.23076C36.9355 9.25264 36.6949 9.38389 36.4214 9.51514C35.6886 9.88701 35.0105 10.3683 34.3433 11.0136L33.7308 11.5823L33.2714 11.2761C33.0199 11.112 32.5495 10.8604 32.2324 10.7073C31.9261 10.5651 31.6417 10.4448 31.6308 10.4339C31.6089 10.4229 31.7949 10.2042 32.0464 9.95264C34.3324 7.6667 34.3324 4.02451 32.0574 1.76045C31.3027 1.00576 30.3183 0.437012 29.4214 0.2292C29.148 0.163574 28.5136 0.108887 27.9995 0.108887C26.873 0.108887 26.2933 0.240137 25.4183 0.6667C24.073 1.33389 23.023 2.54795 22.5089 4.02451C22.1699 5.03076 22.1699 6.63857 22.5199 7.65576C22.8042 8.48701 23.3402 9.34014 23.9636 9.96357C24.2042 10.2042 24.3902 10.4229 24.3683 10.4339C24.3574 10.4448 24.073 10.5651 23.7667 10.7073C23.4495 10.8604 22.9792 11.112 22.7277 11.2761L22.2683 11.5823L21.6558 11.0136C20.9886 10.3683 20.3105 9.88701 19.5777 9.51514C19.3042 9.38389 19.0636 9.25264 19.0417 9.23076C19.0199 9.20889 19.1949 8.96826 19.4464 8.70576C20.8355 7.19639 21.1636 4.89951 20.2667 2.97451C19.9386 2.28545 18.9542 1.1917 18.3199 0.819824C17.0949 0.09795 15.312 -0.109863 13.9777 0.3167ZM17.1824 2.37295C18.987 3.35732 19.4574 5.66514 18.1777 7.29482C17.937 7.59014 17.4995 7.96201 17.1605 8.14795C16.6355 8.44326 16.4714 8.47607 15.6402 8.47607C14.5683 8.47607 13.9777 8.24639 13.2886 7.56826C11.7355 6.03701 12.0855 3.40108 13.9995 2.36201C15.0167 1.8042 16.1542 1.8042 17.1824 2.37295ZM41.8027 2.25264C42.5355 2.62451 42.973 3.07295 43.3339 3.80576C43.6292 4.40732 43.6949 4.65889 43.6839 5.24951C43.673 6.50732 42.9402 7.6667 41.7917 8.22451C41.387 8.43232 41.1027 8.47607 40.3589 8.47607C39.5277 8.47607 39.3636 8.44326 38.8386 8.14795C37.3949 7.34951 36.7386 5.63232 37.2964 4.12295C37.9745 2.3292 40.162 1.41045 41.8027 2.25264ZM29.6402 2.30733C30.4386 2.6792 31.1277 3.39014 31.5433 4.26514C31.8277 4.8667 31.8714 5.09639 31.8714 5.79639C31.8605 7.37139 31.073 8.6292 29.662 9.31826C29.0167 9.64639 28.8308 9.6792 27.9995 9.6792C27.1683 9.6792 26.9824 9.64639 26.337 9.31826C23.2745 7.81982 23.4058 3.54326 26.5558 2.21982C27.4199 1.85889 28.7652 1.8917 29.6402 2.30733ZM16.7886 10.5542C17.8824 10.7511 19.3917 11.4839 20.223 12.2276L20.8136 12.7526L20.2558 13.4854C19.6433 14.2839 19.0308 15.3558 18.8011 15.9901L18.6589 16.4058H13.7042C9.67923 16.4058 8.74954 16.3839 8.74954 16.2636C8.74954 15.9464 9.12142 14.8964 9.48236 14.1636C10.2261 12.687 12.1183 11.1339 13.6714 10.7183C14.8855 10.3901 15.6292 10.3464 16.7886 10.5542ZM42.1636 10.6745C44.5261 11.2761 46.7683 13.6495 47.1949 15.9901L47.2714 16.4058H42.3058H37.3402L37.198 15.9901C36.9683 15.3558 36.3558 14.2839 35.7433 13.4854L35.1855 12.7526L35.6667 12.3261C37.5152 10.6636 39.812 10.0839 42.1636 10.6745ZM29.5089 11.7683C31.2589 12.1292 32.5605 12.8729 33.8402 14.2183C34.7699 15.2245 35.448 16.4276 35.7652 17.6745C35.8855 18.1448 35.9839 18.5604 35.9839 18.6151C35.9839 18.6589 32.3964 18.7026 27.9995 18.7026C23.6136 18.7026 20.0152 18.6589 20.0152 18.6151C20.0152 18.2104 20.5292 16.6792 20.9011 15.9573C21.7324 14.3604 23.5152 12.7526 25.112 12.162C26.6214 11.5933 28.0542 11.4729 29.5089 11.7683Z" fill="#1E1E1E"/>
<path d="M27.7803 21.1196C26.96 21.2836 26.0303 21.8196 24.8053 22.8586L23.635 23.843H18.385H13.1459L13.0147 23.4602C12.8834 23.0446 12.2709 22.4539 11.8881 22.3665C10.685 22.0821 6.64904 21.3274 6.32091 21.3274C5.78498 21.3274 5.38029 21.5352 4.95373 22.0164C4.63654 22.3774 4.55998 22.7055 2.67873 32.1555C1.26779 39.2649 0.753725 42.043 0.797475 42.393C0.8631 42.9727 1.31154 43.6071 1.79279 43.804C2.23029 43.9899 7.05373 44.9524 7.52404 44.9524C7.72091 44.9524 8.0381 44.8868 8.23498 44.7993C8.6506 44.6352 9.29591 43.9352 9.29591 43.6618C9.29591 43.5633 11.91 46.0899 15.235 49.393C19.8834 54.0305 21.2834 55.3649 21.71 55.5727C22.1693 55.7915 22.4209 55.8352 23.3506 55.8352C24.2912 55.8352 24.5209 55.8024 24.9912 55.5727C25.7022 55.2118 26.3693 54.5336 26.6865 53.8336L26.949 53.2649L27.9443 54.2493C29.2568 55.529 29.6725 55.7258 31.0615 55.7258C32.1662 55.7258 32.5819 55.5836 33.435 54.9383C33.8287 54.6321 34.3975 53.8008 34.5068 53.3633L34.5834 53.068L35.1194 53.429C36.4209 54.3149 38.2365 54.1727 39.549 53.1008C40.1397 52.6196 40.6756 51.5586 40.7631 50.7274L40.8287 50.1258L41.4303 50.0602C42.6225 49.9399 43.7928 49.1305 44.3287 48.0696C44.5912 47.5336 44.7444 46.5821 44.6678 45.9586L44.5912 45.368L45.5647 44.3946C46.1006 43.8586 46.5709 43.4211 46.6147 43.4211C46.6693 43.4211 46.7022 43.5196 46.7022 43.6399C46.7022 43.9352 47.3365 44.6243 47.7631 44.7993C47.96 44.8868 48.2772 44.9524 48.474 44.9524C48.9443 44.9524 53.7678 43.9899 54.2053 43.804C54.6865 43.6071 55.135 42.9727 55.2006 42.393C55.2444 42.043 54.7303 39.2649 53.3193 32.1555C51.4381 22.7055 51.3615 22.3774 51.0443 22.0164C50.6178 21.5352 50.2131 21.3274 49.6772 21.3274C48.9115 21.3274 43.9678 22.3774 43.6615 22.6071C43.1475 22.9899 42.9506 23.3727 42.8959 24.0508C42.8412 24.8055 42.8412 24.8055 41.299 25.1008C38.3897 25.6586 35.6443 24.8821 32.7568 22.6836C31.4662 21.6993 30.8647 21.3821 29.9459 21.1633C29.1912 20.9883 28.535 20.9774 27.7803 21.1196ZM29.6178 23.0227C29.924 23.1211 30.4928 23.4165 30.8647 23.679C34.0256 25.9211 35.2834 26.5555 37.4053 26.9493C39.0022 27.2555 41.3756 27.1243 43.049 26.6321C43.2678 26.5665 43.3225 26.818 44.7225 33.8071L46.1772 41.0477L44.8209 42.404L43.4647 43.7602L37.624 37.843C34.1897 34.3649 31.4334 31.6524 30.9303 31.2805C30.46 30.9196 29.6615 30.4274 29.1475 30.1758C28.3162 29.7602 28.0975 29.7055 27.31 29.6727C26.5772 29.629 26.3475 29.6618 26.0303 29.8368C25.385 30.1868 25.199 30.679 25.0022 32.604C24.6412 36.1258 23.985 37.4383 22.1147 38.379C21.5131 38.6852 21.4475 38.6961 21.3928 38.5211C21.2069 37.8977 19.6647 30.6133 19.6647 30.3399C19.6647 30.154 19.7412 29.8477 19.8397 29.6508C20.0693 29.2133 27.0037 23.4165 27.6162 23.1649C28.4256 22.8258 28.8303 22.793 29.6178 23.0227ZM8.80373 23.6352C10.0725 23.8868 11.1334 24.1274 11.1881 24.1602C11.2537 24.2258 7.6006 42.9727 7.50216 43.0711C7.48029 43.0821 6.38654 42.8852 5.07404 42.6227C2.94123 42.1961 2.67873 42.1196 2.68966 41.9336C2.7006 41.529 6.3756 23.1868 6.44123 23.1868C6.47404 23.1868 7.53498 23.3946 8.80373 23.6352ZM51.46 32.4508C52.4772 37.5586 53.3084 41.8243 53.3084 41.9446C53.3193 42.1305 53.0787 42.1961 50.924 42.6227C49.6115 42.8852 48.5178 43.0821 48.4959 43.0711C48.4193 42.9836 44.7444 24.2368 44.799 24.1821C44.8537 24.1164 49.1084 23.2196 49.4475 23.1977C49.6006 23.1868 49.9287 24.6961 51.46 32.4508ZM21.2615 25.8008C21.2069 25.8555 20.6272 26.3477 19.96 26.9055C18.724 27.9446 18.1553 28.6118 17.9256 29.3008C17.6631 30.0665 17.7943 31.018 18.8443 35.754C19.9709 40.8071 19.96 40.7961 20.7147 40.7961C21.1959 40.7961 22.749 40.2274 23.4818 39.8008C24.8709 38.9586 25.9756 37.4165 26.4131 35.7102C26.599 34.9883 26.9053 32.8008 26.9053 32.2102C26.9053 31.3899 27.2225 31.3024 28.2506 31.8274C29.574 32.4946 30.4162 33.2493 35.1084 38.0071C42.2725 45.2586 42.7318 45.7399 42.8084 46.079C42.9944 46.8774 42.2397 48.0258 41.4193 48.179C40.424 48.3649 40.5553 48.4743 35.7647 43.6946C33.074 41.004 31.2256 39.254 31.0615 39.2102C30.6787 39.1227 30.2412 39.3086 30.0115 39.6477C29.6178 40.2602 29.6725 40.3258 34.3318 45.0071C39.0569 49.7321 39.0678 49.754 38.8818 50.7165C38.7725 51.2961 38.0287 52.0071 37.4162 52.1165C36.4975 52.2696 36.4756 52.2586 31.499 47.293C27.0147 42.8305 26.8287 42.6555 26.435 42.6555C25.7022 42.6555 25.2756 43.3446 25.6037 44.0008C25.6693 44.1321 27.2881 45.8165 29.2022 47.7415C32.1115 50.6618 32.7022 51.318 32.8006 51.679C33.1834 53.1008 31.5865 54.4133 30.2631 53.7461C30.0662 53.6477 28.2287 51.8868 26.1725 49.8415C22.6178 46.2977 22.41 46.1118 22.0272 46.1118C21.535 46.1118 21.1084 46.5493 21.1084 47.0524C21.1084 47.3477 21.3709 47.654 23.0115 49.3165C24.0615 50.3774 24.9803 51.3836 25.035 51.5477C25.5053 52.7618 24.6303 54.0524 23.3506 54.0524C23.0881 54.0524 22.7381 53.9758 22.574 53.8774C22.399 53.7899 19.4569 50.9133 16.0225 47.479L9.7881 41.2336L11.3084 33.6102C12.1506 29.4102 12.8506 25.9102 12.8834 25.8336C12.9162 25.7352 13.8678 25.7024 17.149 25.7024C19.6209 25.7024 21.3272 25.7461 21.2615 25.8008Z" fill="#1E1E1E"/>
</g>
<defs>
<clipPath id="clip0_784_1190">
<rect width="56" height="56" fill="white"/>
</clipPath>
</defs>
</svg>
