<svg width="56" height="56" viewBox="0 0 56 56" fill="none" xmlns="http://www.w3.org/2000/svg">
<g id="fi_4185218" clip-path="url(#clip0_784_1208)">
<g id="Group">
<path id="Vector" d="M51.5195 20.4437H48.182V20.0689C48.182 19.1359 47.423 18.377 46.49 18.377H39.9076C39.4539 18.377 39.0861 18.7446 39.0861 19.1984C39.0861 19.6522 39.4539 20.0199 39.9076 20.0199H46.49C46.517 20.0199 46.5391 20.0418 46.5391 20.0689V30.085C46.5391 30.5388 46.9069 30.9065 47.3605 30.9065C47.8142 30.9065 48.182 30.5388 48.182 30.085V22.0866H51.5195C51.6306 22.0866 51.7209 22.177 51.7209 22.288V50.9473C51.7209 52.8272 50.1916 54.3566 48.3117 54.3566H7.68736C5.8075 54.3566 4.27814 52.8272 4.27814 50.9473V22.288C4.27814 22.177 4.3685 22.0866 4.47956 22.0866H7.92657V50.1824C7.92657 51.3408 8.86896 52.2833 10.0275 52.2833H46.081C47.2395 52.2833 48.1819 51.3409 48.1819 50.1824V33.5888C48.1819 33.135 47.8141 32.7673 47.3604 32.7673C46.9068 32.7673 46.539 33.135 46.539 33.5888V45.4104H33.2482C31.5268 45.4104 29.9733 46.1383 28.8758 47.3011V36.6751C28.8758 36.2213 28.508 35.8536 28.0543 35.8536C27.6006 35.8536 27.2328 36.2213 27.2328 36.6751V47.3012C26.1353 46.1384 24.5817 45.4105 22.8604 45.4105H19.1276C18.674 45.4105 18.3062 45.7782 18.3062 46.232C18.3062 46.6858 18.674 47.0535 19.1276 47.0535H22.8604C25.0031 47.0535 26.7896 48.6032 27.1609 50.6403H10.0275C9.77488 50.6403 9.56952 50.435 9.56952 50.1824V47.0535H15.6238C16.0774 47.0535 16.4452 46.6858 16.4452 46.232C16.4452 45.7782 16.0774 45.4105 15.6238 45.4105H9.56952V20.0689C9.56952 20.0418 9.59153 20.0199 9.61859 20.0199H16.201C16.6547 20.0199 17.0225 19.6522 17.0225 19.1984C17.0225 18.7446 16.6547 18.377 16.201 18.377H9.61859C8.68561 18.377 7.92657 19.136 7.92657 20.0689V20.4437H4.47956C3.46258 20.4437 2.63519 21.2711 2.63519 22.288V50.9473C2.63519 53.7331 4.90158 55.9995 7.68736 55.9995H48.3115C51.0973 55.9995 53.3636 53.7331 53.3636 50.9473V22.288C53.3638 21.2711 52.5365 20.4437 51.5195 20.4437ZM33.2482 47.0534H46.539V50.1824C46.539 50.435 46.3336 50.6403 46.081 50.6403H28.9478C29.319 48.6031 31.1055 47.0534 33.2482 47.0534Z" fill="#1E1E1E"/>
<path id="Vector_2" d="M17.1017 11.5259C17.5526 11.5678 17.9541 11.2369 17.9967 10.7852C18.2316 8.29402 19.3819 5.98755 21.236 4.29072C23.1016 2.58337 25.523 1.64295 28.0542 1.64295C33.6252 1.64295 38.1576 6.17528 38.1576 11.7462C38.1576 13.8425 37.5213 15.8528 36.3177 17.5601C36.3109 17.5698 36.3043 17.5796 36.2979 17.5895L31.0411 25.7733C30.956 25.9058 30.9108 26.0598 30.9108 26.2174V27.2815C30.9108 27.4975 30.7351 27.6732 30.5191 27.6732H30.4654L30.9888 18.7931H31.9246C33.2637 18.7931 34.3531 17.7037 34.3531 16.3647V16.265C34.3531 14.926 33.2637 13.8367 31.9246 13.8367C30.6408 13.8367 29.5759 14.8406 29.5004 16.1222L29.4398 17.1502H26.559L26.4985 16.1222C26.423 14.8406 25.3581 13.8367 24.0743 13.8367C22.7351 13.8367 21.6458 14.926 21.6458 16.265V16.3647C21.6458 17.7037 22.7351 18.7931 24.0743 18.7931H25.0101L25.5331 27.6675C25.3439 27.6399 25.1977 27.4783 25.1977 27.2815V26.2174C25.1977 26.0598 25.1525 25.9058 25.0675 25.7733L19.8106 17.5895C19.8042 17.5796 19.7977 17.5698 19.7909 17.5601C19.035 16.4878 18.5027 15.2963 18.2091 14.0184C18.1073 13.5762 17.6659 13.3003 17.2244 13.4018C16.7822 13.5036 16.5062 13.9443 16.6078 14.3865C16.9483 15.8672 17.5639 17.2484 18.4377 18.4919L23.555 26.4582V27.2813C23.555 28.1108 24.0545 28.8248 24.7681 29.1412V30.5304C24.7681 31.9922 25.9573 33.1814 27.4191 33.1814H28.6901C30.1517 33.1814 31.341 31.9922 31.341 30.5304V29.1412C32.0545 28.8248 32.5541 28.1109 32.5541 27.2813V26.4582L37.6713 18.4919C39.0645 16.5093 39.8009 14.177 39.8009 11.7461C39.8004 5.26925 34.5311 0 28.0542 0C25.1114 0 22.296 1.09343 20.1268 3.07877C17.9716 5.0514 16.6342 7.73334 16.3611 10.6309C16.3183 11.0828 16.65 11.4834 17.1017 11.5259ZM31.1405 16.2188C31.1649 15.8043 31.5093 15.4795 31.9246 15.4795C32.3578 15.4795 32.7101 15.8319 32.7101 16.2649V16.3646C32.7101 16.7977 32.3578 17.15 31.9246 17.15H31.0856L31.1405 16.2188ZM24.0743 17.15C23.6411 17.15 23.2887 16.7977 23.2887 16.3646V16.2649C23.2887 15.8319 23.6411 15.4795 24.0743 15.4795C24.4896 15.4795 24.834 15.8043 24.8584 16.2188L24.9133 17.15H24.0743ZM29.343 18.793L28.8197 27.6731H27.1792L26.656 18.793H29.343ZM29.6976 30.5305C29.6976 31.0863 29.2455 31.5385 28.6896 31.5385H27.4186C26.8629 31.5385 26.4106 31.0863 26.4106 30.5305V29.3161H29.6975V30.5305H29.6976Z" fill="#1E1E1E"/>
<path id="Vector_3" d="M42.4437 6.23809C42.6361 6.23809 42.8293 6.17083 42.9853 6.03392L44.7776 4.4602C45.1186 4.16096 45.1522 3.64179 44.853 3.30094C44.5537 2.96008 44.0347 2.92635 43.6937 3.22558L41.9014 4.7993C41.5604 5.09854 41.5268 5.61771 41.826 5.95857C41.9885 6.14356 42.2155 6.23809 42.4437 6.23809Z" fill="#1E1E1E"/>
<path id="Vector_4" d="M41.9013 11.1923L43.6937 12.7661C43.8497 12.9031 44.0429 12.9703 44.2354 12.9703C44.4636 12.9703 44.6906 12.8757 44.8531 12.6907C45.1524 12.3499 45.1187 11.8308 44.7778 11.5315L42.9855 9.95764C42.6445 9.65819 42.1256 9.69203 41.8262 10.033C41.5268 10.3739 41.5604 10.8928 41.9013 11.1923Z" fill="#1E1E1E"/>
<path id="Vector_5" d="M11.3311 4.45984L13.1235 6.03356C13.2794 6.17058 13.4726 6.23772 13.6651 6.23772C13.8932 6.23772 14.1203 6.1432 14.2827 5.9582C14.5821 5.61735 14.5483 5.09818 14.2074 4.79894L12.415 3.22522C12.0742 2.92576 11.555 2.95961 11.2558 3.30058C10.9564 3.64143 10.9901 4.16049 11.3311 4.45984Z" fill="#1E1E1E"/>
<path id="Vector_6" d="M11.8733 12.9701C12.0657 12.9701 12.2589 12.9029 12.415 12.766L14.2074 11.1921C14.5482 10.8928 14.582 10.3737 14.2826 10.0329C13.9834 9.69201 13.4643 9.65828 13.1234 9.95752L11.331 11.5313C10.9902 11.8307 10.9564 12.3498 11.2558 12.6906C11.4181 12.8756 11.645 12.9701 11.8733 12.9701Z" fill="#1E1E1E"/>
<path id="Vector_7" d="M20.7865 28.4943C20.7865 28.0405 20.4187 27.6729 19.965 27.6729H11.873C11.4194 27.6729 11.0516 28.0405 11.0516 28.4943C11.0516 28.9481 11.4194 29.3158 11.873 29.3158H19.965C20.4187 29.3158 20.7865 28.9481 20.7865 28.4943Z" fill="#1E1E1E"/>
<path id="Vector_8" d="M22.4668 31.8516H13.3562C12.9025 31.8516 12.5347 32.2193 12.5347 32.673C12.5347 33.1268 12.9025 33.4945 13.3562 33.4945H22.4668C22.9204 33.4945 23.2882 33.1268 23.2882 32.673C23.2882 32.2193 22.9204 31.8516 22.4668 31.8516Z" fill="#1E1E1E"/>
<path id="Vector_9" d="M22.4668 35.854H13.3562C12.9025 35.854 12.5347 36.2217 12.5347 36.6755C12.5347 37.1293 12.9025 37.4969 13.3562 37.4969H22.4668C22.9204 37.4969 23.2882 37.1293 23.2882 36.6755C23.2882 36.2217 22.9204 35.854 22.4668 35.854Z" fill="#1E1E1E"/>
<path id="Vector_10" d="M22.4668 39.8564H13.3562C12.9025 39.8564 12.5347 40.2241 12.5347 40.6779C12.5347 41.1317 12.9025 41.4994 13.3562 41.4994H22.4668C22.9204 41.4994 23.2882 41.1317 23.2882 40.6779C23.2882 40.2241 22.9204 39.8564 22.4668 39.8564Z" fill="#1E1E1E"/>
<path id="Vector_11" d="M45.0568 28.4943C45.0568 28.0405 44.689 27.6729 44.2353 27.6729H36.1434C35.6897 27.6729 35.3219 28.0405 35.3219 28.4943C35.3219 28.9481 35.6897 29.3158 36.1434 29.3158H44.2353C44.689 29.3158 45.0568 28.9481 45.0568 28.4943Z" fill="#1E1E1E"/>
<path id="Vector_12" d="M42.7514 31.8516H33.6409C33.1872 31.8516 32.8194 32.2193 32.8194 32.673C32.8194 33.1268 33.1872 33.4945 33.6409 33.4945H42.7514C43.2051 33.4945 43.5729 33.1268 43.5729 32.673C43.5729 32.2193 43.2051 31.8516 42.7514 31.8516Z" fill="#1E1E1E"/>
<path id="Vector_13" d="M42.7514 35.854H33.6409C33.1872 35.854 32.8194 36.2217 32.8194 36.6755C32.8194 37.1293 33.1872 37.4969 33.6409 37.4969H42.7514C43.2051 37.4969 43.5729 37.1293 43.5729 36.6755C43.5729 36.2217 43.2051 35.854 42.7514 35.854Z" fill="#1E1E1E"/>
<path id="Vector_14" d="M42.7514 39.8564H33.6409C33.1872 39.8564 32.8194 40.2241 32.8194 40.6779C32.8194 41.1317 33.1872 41.4994 33.6409 41.4994H42.7514C43.2051 41.4994 43.5729 41.1317 43.5729 40.6779C43.5729 40.2241 43.2051 39.8564 42.7514 39.8564Z" fill="#1E1E1E"/>
</g>
</g>
<defs>
<clipPath id="clip0_784_1208">
<rect width="56" height="56" fill="white"/>
</clipPath>
</defs>
</svg>
