<svg width="18" height="19" viewBox="0 0 18 19" fill="none" xmlns="http://www.w3.org/2000/svg">
<path d="M17.9747 10.519C17.9747 10.5189 17.9747 10.5189 17.9746 10.5188L14.5762 1.98551C14.5041 1.8042 14.2985 1.71569 14.1172 1.78781C14.1171 1.78786 14.117 1.7879 14.1168 1.78799L0.329671 7.27791C0.273445 7.3022 0.224683 7.34098 0.188333 7.39027C0.0736724 7.44985 0.00123671 7.56778 0 7.69697V16.8839C0 17.0791 0.15821 17.2373 0.353345 17.2373H15.1938C15.389 17.2373 15.5472 17.0791 15.5472 16.8839V11.8664L17.7775 10.9781C17.9587 10.9058 18.047 10.7003 17.9747 10.519ZM14.8405 16.5306H0.70669V8.05032H14.8405V16.5306ZM5.89556 7.34539L11.812 4.98788C12.34 5.54289 13.0716 5.85834 13.8377 5.86135L14.4278 7.34539H5.89556ZM15.5472 11.1075V7.69697C15.5472 7.50184 15.389 7.34363 15.1938 7.34363H15.1882L14.4394 5.46313C14.4311 5.44745 14.4215 5.43252 14.4105 5.41861C14.3726 5.24843 14.215 5.13231 14.0412 5.14653C13.3284 5.2115 12.6311 4.91125 12.1886 4.34868C12.0785 4.21277 11.885 4.17898 11.7353 4.26953C11.7185 4.27152 11.7019 4.27461 11.6855 4.27872L4.46239 7.15494C4.37498 7.18922 4.30506 7.25719 4.2684 7.34363H2.07484L14.0504 2.57524L17.1877 10.4531L15.5472 11.1075Z" fill="#686868"/>
<path d="M1.66537 14.145C2.35139 14.3478 2.88821 14.8839 3.09183 15.5697C3.13648 15.7194 3.27415 15.8219 3.43033 15.822C3.44866 15.8208 3.46686 15.8181 3.48475 15.8138C3.5006 15.8183 3.51681 15.8217 3.53315 15.8237H12.0134C12.028 15.8218 12.0424 15.8189 12.0565 15.8149C12.2331 15.8578 12.411 15.7496 12.454 15.573C12.4541 15.5724 12.4543 15.5718 12.4544 15.5711C12.6575 14.8846 13.1944 14.3477 13.8809 14.1446C14.0473 14.0938 14.1508 13.9279 14.1233 13.756C14.128 13.7388 14.1314 13.7213 14.1335 13.7037V10.8769C14.1314 10.8592 14.1279 10.8417 14.1229 10.8246C14.1506 10.6527 14.0471 10.4867 13.8805 10.4359C13.194 10.2329 12.6573 9.69576 12.4548 9.00912C12.4036 8.84151 12.2361 8.7378 12.0633 8.76673C12.0469 8.76218 12.0303 8.75887 12.0134 8.75684H3.53315C3.51535 8.75896 3.49773 8.76249 3.48051 8.76744C3.30865 8.74005 3.14284 8.84345 3.09183 9.00983C2.88861 9.69616 2.35175 10.2329 1.66537 10.4359C1.4989 10.4868 1.39546 10.6527 1.42298 10.8246C1.41839 10.8418 1.41507 10.8592 1.41309 10.8769V13.7037C1.41512 13.7203 1.41843 13.7367 1.42298 13.7528C1.39401 13.9258 1.49767 14.0935 1.66537 14.145ZM2.11978 11.0204C2.82929 10.7354 3.39164 10.173 3.67661 9.46353H11.8696C12.1547 10.173 12.7172 10.7354 13.4268 11.0204V13.5602C12.7175 13.8455 12.1553 14.4077 11.87 15.117H3.67661C3.39133 14.4077 2.82907 13.8455 2.11978 13.5602V11.0204Z" fill="#686868"/>
<path d="M7.77339 14.4105C8.94429 14.4105 9.89346 13.4614 9.89346 12.2905C9.89346 11.1196 8.94429 10.1704 7.77339 10.1704C6.60249 10.1704 5.65332 11.1196 5.65332 12.2905C5.65447 13.4609 6.60298 14.4094 7.77339 14.4105ZM7.77339 10.8771C8.55397 10.8771 9.18677 11.5099 9.18677 12.2905C9.18677 13.0711 8.55397 13.7039 7.77339 13.7039C6.99281 13.7039 6.36001 13.0711 6.36001 12.2905C6.36001 11.5099 6.99281 10.8771 7.77339 10.8771Z" fill="#686868"/>
<path d="M3.88646 12.8208C4.17916 12.8208 4.41648 12.5835 4.41648 12.2908C4.41648 11.9981 4.17916 11.7607 3.88646 11.7607C3.59376 11.7607 3.35645 11.9981 3.35645 12.2908C3.35645 12.5835 3.59376 12.8208 3.88646 12.8208ZM3.88646 12.1141C3.98403 12.1141 4.06313 12.1932 4.06313 12.2908C4.06313 12.3883 3.98403 12.4674 3.88646 12.4674C3.7889 12.4674 3.70979 12.3883 3.70979 12.2908C3.70979 12.1932 3.7889 12.1141 3.88646 12.1141Z" fill="#686868"/>
<path d="M11.6599 12.8208C11.9526 12.8208 12.1899 12.5835 12.1899 12.2908C12.1899 11.9981 11.9526 11.7607 11.6599 11.7607C11.3672 11.7607 11.1299 11.9981 11.1299 12.2908C11.1299 12.5835 11.3672 12.8208 11.6599 12.8208ZM11.6599 12.1141C11.7575 12.1141 11.8366 12.1932 11.8366 12.2908C11.8366 12.3883 11.7575 12.4674 11.6599 12.4674C11.5623 12.4674 11.4832 12.3883 11.4832 12.2908C11.4832 12.1932 11.5623 12.1141 11.6599 12.1141Z" fill="#686868"/>
</svg>
