<svg width="32" height="32" viewBox="0 0 32 32" fill="none" xmlns="http://www.w3.org/2000/svg">
<g clip-path="url(#clip0_891_765)">
<path d="M27.2869 14.6326V6.562C27.2869 4.64385 25.7161 3.05956 23.7979 3.05956H23.3633V2.51246C23.3633 1.14389 22.2538 0.0344173 20.8853 0.0344173C19.5167 0.0344173 18.4072 1.14389 18.4072 2.51246V3.05956H9.32106V2.51246C9.32106 1.12489 8.19617 0 6.8086 0C5.42103 0 4.29614 1.12489 4.29614 2.51246V3.05956H3.92065C2.00244 3.05956 0.441406 4.64385 0.441406 6.562V25.0939C0.441406 27.0121 2.00244 28.5972 3.92065 28.5972H14.8374C16.6372 30.75 19.2975 31.9959 22.1036 32C27.3144 32 31.5591 27.7545 31.5591 22.5436C31.5592 19.2408 29.8337 16.3228 27.2869 14.6326ZM19.7839 2.51246C19.7733 1.91291 20.2507 1.41827 20.8502 1.40767C20.8599 1.40753 20.8695 1.40746 20.8791 1.40753C21.4843 1.40113 21.9802 1.88655 21.9866 2.49181C21.9867 2.49869 21.9867 2.50558 21.9866 2.51246V5.19343H19.7839V2.51246ZM5.67283 2.51246C5.67937 1.89563 6.18475 1.40092 6.80158 1.40746C6.80268 1.40746 6.80371 1.40746 6.80475 1.40753C7.42384 1.40753 7.94437 1.89343 7.94437 2.51246V5.19343H5.67283V2.51246ZM1.8181 6.562C1.8181 5.40289 2.76154 4.43625 3.92065 4.43625H4.29614V5.91041C4.29614 6.29051 4.61361 6.57012 4.99378 6.57012H8.61585C8.99596 6.57012 9.32106 6.29051 9.32106 5.91041V4.43625H18.4072V5.91041C18.397 6.26456 18.6759 6.55993 19.03 6.57012C19.0427 6.57046 19.0554 6.57046 19.068 6.57012H22.6901C23.0498 6.5821 23.3511 6.30022 23.363 5.94056C23.3634 5.93051 23.3634 5.92046 23.3633 5.91041V4.43625H23.7979C24.9648 4.44802 25.9058 5.39504 25.9102 6.562V8.77282H1.8181V6.562ZM3.92065 27.2205C2.76154 27.2205 1.8181 26.253 1.8181 25.0939V10.1495H25.9102V13.8841C24.712 13.358 23.4175 13.0866 22.1089 13.0871C16.8981 13.0871 12.656 17.3388 12.656 22.5497C12.6534 24.1868 13.0765 25.7964 13.884 27.2205H3.92065ZM22.1036 30.6111C17.6447 30.6111 14.03 26.9964 14.03 22.5374C14.03 18.0784 17.6447 14.4637 22.1036 14.4637C26.5626 14.4637 30.1773 18.0784 30.1773 22.5374V22.5375C30.1723 26.9943 26.5605 30.606 22.1036 30.6111Z" fill="#F0F0F0"/>
<path d="M25.3464 22.5396H22.3308V18.3978C22.3308 18.0176 22.0226 17.7095 21.6424 17.7095C21.2623 17.7095 20.9541 18.0176 20.9541 18.3978V23.2272C20.9602 23.61 21.2725 23.917 21.6554 23.9163H25.3464C25.7266 23.9163 26.0348 23.6081 26.0348 23.2279C26.0348 22.8478 25.7266 22.5396 25.3464 22.5396Z" fill="#F0F0F0"/>
</g>
<defs>
<clipPath id="clip0_891_765">
<rect width="32" height="32" fill="white"/>
</clipPath>
</defs>
</svg>
