<svg width="49" height="48" viewBox="0 0 49 48" fill="none" xmlns="http://www.w3.org/2000/svg">
<g clip-path="url(#clip0_891_880)">
<path d="M9.0726 27.5662C8.4838 27.3566 7.8502 27.2526 7.1878 27.2526C3.9334 27.2526 1.2998 29.9262 1.2998 33.227C1.2998 36.5262 3.935 39.1998 7.1878 39.1998H34.4198C36.4518 39.1998 38.0998 37.5278 38.0998 35.467C38.0998 33.4062 36.4518 31.7326 34.4198 31.7326C33.935 31.7326 33.479 31.8222 33.0502 32.0014C33.4486 31.2558 33.6838 30.403 33.687 29.4926C33.687 26.611 31.375 24.267 28.5334 24.267C27.0614 24.267 25.7366 24.8926 24.7958 25.9086C24.839 25.6254 24.855 25.3118 24.855 25.0126C24.855 20.4734 21.2326 16.7998 16.7574 16.7998C12.2822 16.7998 8.6598 20.4734 8.6598 25.0126C8.6598 25.9086 8.8054 26.7598 9.0726 27.5662ZM9.0726 27.5662V27.5806" stroke="#F0F0F0" stroke-miterlimit="10" stroke-linecap="round" stroke-linejoin="round"/>
<path d="M36.9639 32.7678C41.9239 32.4318 46.0679 29.2798 47.6999 24.9438" stroke="#F0F0F0" stroke-miterlimit="10" stroke-linecap="round" stroke-linejoin="round"/>
<path d="M23.7002 20.7998C23.7002 14.1758 29.2522 8.7998 36.0842 8.7998C37.3306 8.7998 38.5306 8.9758 39.6506 9.3118" stroke="#F0F0F0" stroke-miterlimit="10" stroke-linecap="round" stroke-linejoin="round"/>
<path d="M39.6552 9.31201C36.1384 10.512 33.6104 13.776 33.6104 17.6C33.6104 22.464 37.6744 26.4 42.6952 26.4C44.5448 26.4 46.2632 25.856 47.7016 24.944" stroke="#F0F0F0" stroke-miterlimit="10" stroke-linecap="round" stroke-linejoin="round"/>
</g>
<defs>
<clipPath id="clip0_891_880">
<rect width="48" height="48" fill="white" transform="translate(0.5)"/>
</clipPath>
</defs>
</svg>
