<svg width="48" height="48" viewBox="0 0 48 48" fill="none" xmlns="http://www.w3.org/2000/svg">
<g clip-path="url(#clip0_891_862)">
<path d="M41.5803 43.2599H6.42777C4.77666 43.2605 3.18865 42.6256 1.99297 41.487C0.797291 40.3483 0.0856591 38.7932 0.00561144 37.144C-0.0744362 35.4949 0.48324 33.8781 1.56302 32.629C2.6428 31.3799 4.16187 30.5943 5.80527 30.4349C5.80527 30.2474 5.80527 30.0449 5.80527 29.8424C5.80386 27.9775 6.45813 26.1714 7.65367 24.74C8.8492 23.3087 10.5099 22.3432 12.3453 22.0124C13.5375 21.8033 14.7604 21.8467 15.9347 22.14C17.1091 22.4333 18.2089 22.9698 19.1628 23.7149C20.0042 21.5959 21.3631 19.7213 23.1153 18.2624C24.906 16.7414 27.0946 15.7643 29.4226 15.4466C31.7506 15.1289 34.1209 15.4838 36.2537 16.4694C38.3866 17.455 40.193 19.0302 41.4597 21.0091C42.7265 22.9879 43.4007 25.2879 43.4028 27.6374C43.4037 28.6285 43.2828 29.6159 43.0428 30.5774C44.459 30.8976 45.723 31.6926 46.6248 32.8305C47.5267 33.9684 48.012 35.3806 48.0003 36.8324C48.0003 38.5358 47.3241 40.1695 46.1204 41.3747C44.9166 42.5799 43.2837 43.2579 41.5803 43.2599ZM6.47277 31.8599H6.42777C5.10899 31.8599 3.84421 32.3838 2.91169 33.3163C1.97916 34.2489 1.45528 35.5136 1.45528 36.8324C1.45528 38.1512 1.97916 39.416 2.91169 40.3485C3.84421 41.281 5.10899 41.8049 6.42777 41.8049H41.5803C42.8978 41.8029 44.1606 41.2782 45.0915 40.3459C46.0224 39.4136 46.5453 38.1499 46.5453 36.8324C46.5553 35.5941 46.0973 34.3977 45.2629 33.4826C44.4285 32.5675 43.2793 32.0014 42.0453 31.8974C41.9373 31.886 41.8331 31.8512 41.7398 31.7955C41.6466 31.7398 41.5666 31.6646 41.5053 31.5749C41.4426 31.484 41.4025 31.3794 41.3881 31.2699C41.3738 31.1603 41.3857 31.049 41.4228 30.9449C41.7677 29.8764 41.9423 28.7602 41.9403 27.6374C41.9346 25.5675 41.3375 23.5423 40.2193 21.8004C39.1011 20.0585 37.5083 18.6724 35.6287 17.8055C33.749 16.9385 31.6607 16.6269 29.6099 16.9071C27.559 17.1874 25.6309 18.048 24.0528 19.3874C22.1983 20.8977 20.8547 22.9431 20.2053 25.2449C20.1719 25.3751 20.1041 25.4938 20.0092 25.5888C19.9142 25.6838 19.7954 25.7515 19.6653 25.7849C19.5303 25.8184 19.3887 25.8137 19.2562 25.7713C19.1238 25.7289 19.0057 25.6505 18.9153 25.5449C18.1185 24.6916 17.1193 24.0531 16.0102 23.6886C14.9011 23.3242 13.7179 23.2455 12.5703 23.4599C11.0693 23.7309 9.71127 24.5208 8.73375 25.6916C7.75622 26.8625 7.22139 28.3397 7.22277 29.8649C7.21842 30.255 7.2536 30.6445 7.32778 31.0274C7.34641 31.1398 7.33921 31.2549 7.30672 31.3641C7.27423 31.4732 7.21731 31.5735 7.14028 31.6574C7.06361 31.7419 6.9676 31.8065 6.86049 31.8457C6.75337 31.8849 6.63834 31.8975 6.52527 31.8824L6.47277 31.8599Z" fill="#1E1E1E"/>
<path d="M12.4578 23.4523C12.3394 23.4544 12.2223 23.4266 12.1175 23.3716C12.0126 23.3165 11.9233 23.2359 11.8578 23.1373C11.0739 22.0048 10.6551 20.6596 10.6578 19.2823C10.6346 17.503 11.3071 15.785 12.5322 14.4945C13.7572 13.2039 15.4378 12.4428 17.2159 12.3734C18.9939 12.3039 20.7288 12.9316 22.0508 14.1227C23.3727 15.3138 24.1772 16.9741 24.2928 18.7498C24.2666 18.9165 24.1849 19.0694 24.0609 19.184C23.937 19.2985 23.778 19.3679 23.6098 19.3809C23.4415 19.3939 23.2738 19.3498 23.1337 19.2557C22.9936 19.1616 22.8894 19.023 22.8378 18.8623C22.7822 18.0354 22.536 17.2326 22.1184 16.5167C21.7008 15.8009 21.1232 15.1914 20.4308 14.736C19.7384 14.2806 18.95 13.9916 18.1272 13.8917C17.3045 13.7918 16.4699 13.8837 15.6886 14.1601C14.9073 14.4366 14.2006 14.8901 13.6238 15.4852C13.0471 16.0803 12.6158 16.8009 12.364 17.5904C12.1121 18.3799 12.0463 19.2171 12.1719 20.0363C12.2975 20.8554 12.611 21.6344 13.0878 22.3123C13.1895 22.4724 13.2266 22.6652 13.1918 22.8517C13.157 23.0382 13.0529 23.2045 12.9003 23.3173C12.773 23.4124 12.6165 23.4602 12.4578 23.4523Z" fill="#1E1E1E"/>
<path d="M17.4903 10.455C17.2914 10.455 17.1006 10.376 16.9599 10.2353C16.8193 10.0947 16.7403 9.9039 16.7403 9.70498V5.46748C16.7126 5.35689 16.7104 5.24144 16.734 5.12989C16.7576 5.01835 16.8063 4.91366 16.8765 4.82377C16.9466 4.73388 17.0363 4.66117 17.1388 4.61116C17.2412 4.56115 17.3538 4.53516 17.4678 4.53516C17.5818 4.53516 17.6943 4.56115 17.7968 4.61116C17.8992 4.66117 17.9889 4.73388 18.0591 4.82377C18.1292 4.91366 18.1779 5.01835 18.2015 5.12989C18.2251 5.24144 18.223 5.35689 18.1953 5.46748V9.74998C18.1846 9.93347 18.1068 10.1066 17.9769 10.2366C17.8469 10.3666 17.6738 10.4443 17.4903 10.455Z" fill="#1E1E1E"/>
<path d="M13.8298 11.1822C13.6881 11.1791 13.5502 11.1359 13.4321 11.0575C13.3139 10.9792 13.2204 10.869 13.1623 10.7397L12.3448 8.76725C12.277 8.58685 12.2813 8.38729 12.3567 8.20994C12.4321 8.03259 12.5729 7.89108 12.7498 7.81475C12.9284 7.74599 13.1265 7.74807 13.3035 7.82058C13.4806 7.89308 13.6233 8.03051 13.7023 8.20475L14.5198 10.1772C14.5881 10.3567 14.5849 10.5555 14.511 10.7327C14.437 10.91 14.2979 11.052 14.1223 11.1297C14.0297 11.1678 13.9299 11.1857 13.8298 11.1822Z" fill="#1E1E1E"/>
<path d="M10.7331 13.2525C10.6383 13.254 10.5441 13.2362 10.4565 13.2001C10.3688 13.164 10.2894 13.1104 10.2231 13.0425L7.22309 10.0425C7.12772 9.98304 7.04695 9.90285 6.98674 9.80792C6.92654 9.71298 6.88845 9.60573 6.87528 9.49409C6.86211 9.38245 6.87421 9.26928 6.91068 9.16295C6.94714 9.05662 7.00705 8.95984 7.08596 8.87978C7.16487 8.79971 7.26077 8.73842 7.36656 8.70041C7.47235 8.66241 7.58534 8.64867 7.69716 8.66022C7.80898 8.67176 7.91677 8.7083 8.01256 8.76712C8.10836 8.82594 8.18971 8.90555 8.25059 9.00004L11.2506 12C11.3414 12.1056 11.4011 12.2343 11.4229 12.3718C11.4447 12.5093 11.4278 12.6502 11.3741 12.7786C11.3203 12.9071 11.2319 13.018 11.1187 13.0991C11.0055 13.1801 10.872 13.2281 10.7331 13.2375V13.2525Z" fill="#1E1E1E"/>
<path d="M8.66319 16.35C8.5682 16.3503 8.47403 16.3324 8.38569 16.2975L6.41319 15.48C6.3006 15.4627 6.19345 15.4199 6.09985 15.355C6.00626 15.2901 5.92868 15.2047 5.87301 15.1053C5.81734 15.0059 5.78504 14.8952 5.77856 14.7814C5.77208 14.6677 5.79159 14.554 5.83561 14.4489C5.87963 14.3439 5.947 14.2502 6.03262 14.1751C6.11823 14.0999 6.21984 14.0453 6.32973 14.0153C6.43961 13.9853 6.55489 13.9807 6.66682 14.0019C6.77874 14.023 6.88437 14.0694 6.97569 14.1375L8.94069 14.955C9.07716 15.0331 9.18566 15.1521 9.25083 15.2952C9.31601 15.4382 9.33457 15.5982 9.3039 15.7524C9.27322 15.9066 9.19486 16.0473 9.07989 16.1545C8.96492 16.2617 8.81915 16.3301 8.66319 16.35Z" fill="#1E1E1E"/>
<path d="M7.93509 20.0102H3.67509C3.51292 19.9695 3.36898 19.8759 3.26613 19.7441C3.16328 19.6123 3.10742 19.4499 3.10742 19.2827C3.10742 19.1155 3.16328 18.9531 3.26613 18.8213C3.36898 18.6895 3.51292 18.5958 3.67509 18.5552H7.93509C8.09726 18.5958 8.2412 18.6895 8.34405 18.8213C8.4469 18.9531 8.50276 19.1155 8.50276 19.2827C8.50276 19.4499 8.4469 19.6123 8.34405 19.7441C8.2412 19.8759 8.09726 19.9695 7.93509 20.0102Z" fill="#1E1E1E"/>
<path d="M24.2406 13.2527C24.0475 13.2519 23.8622 13.1767 23.7231 13.0427C23.5923 12.9036 23.5195 12.7199 23.5195 12.5289C23.5195 12.338 23.5923 12.1543 23.7231 12.0152L26.7231 9.0152C26.7788 8.91338 26.8573 8.82586 26.9526 8.75954C27.0478 8.69322 27.1571 8.64991 27.2719 8.633C27.3867 8.6161 27.5039 8.62606 27.6142 8.66212C27.7245 8.69817 27.8249 8.75933 27.9076 8.84078C27.9903 8.92224 28.0529 9.02176 28.0906 9.13152C28.1282 9.24128 28.1399 9.35829 28.1247 9.47333C28.1095 9.58838 28.0678 9.69833 28.0029 9.79452C27.938 9.89071 27.8516 9.97053 27.7506 10.0277L24.7506 13.0277C24.6158 13.1654 24.4332 13.246 24.2406 13.2527Z" fill="#1E1E1E"/>
<path d="M21.1428 11.1826C21.0249 11.1778 20.9098 11.1454 20.8069 11.0878C20.7039 11.0303 20.616 10.9492 20.5502 10.8513C20.4845 10.7534 20.4427 10.6414 20.4284 10.5243C20.4141 10.4072 20.4276 10.2884 20.4678 10.1776L21.2853 8.20505C21.3838 8.06662 21.5265 7.96578 21.6899 7.91905C21.8533 7.87232 22.0277 7.88246 22.1846 7.94783C22.3415 8.01319 22.4715 8.1299 22.5534 8.27883C22.6353 8.42776 22.6641 8.60007 22.6353 8.76755L21.8178 10.7401C21.7591 10.8705 21.6644 10.9814 21.5448 11.0598C21.4253 11.1382 21.2857 11.1808 21.1428 11.1826Z" fill="#1E1E1E"/>
</g>
<defs>
<clipPath id="clip0_891_862">
<rect width="48" height="48" fill="white"/>
</clipPath>
</defs>
</svg>
