<svg width="225" height="25" viewBox="0 0 225 25" fill="none" xmlns="http://www.w3.org/2000/svg">
<path d="M22.7699 15.5583C21.7486 15.5583 20.7374 15.7595 19.7939 16.1503C18.8504 16.5412 17.9931 17.1141 17.2711 17.8363C16.549 18.5586 15.9763 19.416 15.5857 20.3595C15.195 21.3031 14.9941 22.3144 14.9943 23.3357C14.9946 22.3144 14.7936 21.3031 14.403 20.3595C14.0123 19.416 13.4396 18.5586 12.7176 17.8363C11.9955 17.1141 11.1382 16.5412 10.1948 16.1503C9.25126 15.7595 8.24001 15.5583 7.21875 15.5583C9.28096 15.5583 11.2587 14.7391 12.7169 13.2809C14.1751 11.8227 14.9943 9.84493 14.9943 7.78271C14.9943 8.80382 15.1954 9.81492 15.5862 10.7583C15.977 11.7017 16.5497 12.5588 17.2717 13.2809C17.9938 14.0029 18.8509 14.5757 19.7943 14.9664C20.7377 15.3572 21.7488 15.5583 22.7699 15.5583Z" fill="#F6A114"/>
<path d="M14.9939 0.261588C14.9301 4.19509 13.3219 7.94572 10.5167 10.7038C7.71139 13.4619 3.93402 15.0061 0 15.0032C0.062912 11.0693 1.6707 7.3179 4.47613 4.55934C7.28155 1.80078 11.0595 0.256408 14.9939 0.259771V0.261588Z" fill="#002EAE"/>
<path d="M29.9998 15.0032C26.0653 15.0066 22.2874 13.4622 19.482 10.7037C16.6766 7.94511 15.0688 4.19374 15.0059 0.259775C18.9406 0.255472 22.7191 1.79954 25.5247 4.5583C28.3303 7.31706 29.9378 11.069 29.9998 15.0032Z" fill="#002EAE"/>
<g filter="url(#filter0_d_966_219)">
<path d="M43.9027 19H39.6186L46.1463 0.0909085H51.2983L57.8168 19H53.5327L48.7962 4.41193H48.6484L43.9027 19ZM43.6349 11.5675H53.7543V14.6882H43.6349V11.5675ZM59.2388 19V4.81818H63.052V7.29261H63.1998C63.4583 6.4124 63.8922 5.74763 64.5016 5.2983C65.111 4.8428 65.8127 4.61506 66.6067 4.61506C66.8037 4.61506 67.016 4.62737 67.2438 4.65199C67.4715 4.67661 67.6716 4.71046 67.8439 4.75355V8.24361C67.6593 8.18821 67.4038 8.13897 67.0776 8.09588C66.7514 8.05279 66.4528 8.03125 66.182 8.03125C65.6034 8.03125 65.0864 8.15743 64.6309 8.4098C64.1815 8.65601 63.8245 9.00071 63.5598 9.44389C63.3013 9.88707 63.1721 10.398 63.1721 10.9766V19H59.2388ZM73.0307 10.8011V19H69.0975V0.0909085H72.9199V7.32031H73.0861C73.4062 6.48319 73.9233 5.82765 74.6373 5.35369C75.3513 4.87358 76.2469 4.63352 77.3241 4.63352C78.3089 4.63352 79.1676 4.84896 79.9001 5.27983C80.6387 5.70454 81.2111 6.317 81.6174 7.11719C82.0298 7.91122 82.2329 8.86222 82.2268 9.97017V19H78.2935V10.6719C78.2997 9.79782 78.0781 9.11766 77.6287 8.63139C77.1856 8.14512 76.5639 7.90199 75.7637 7.90199C75.2282 7.90199 74.7542 8.01586 74.3418 8.24361C73.9356 8.47135 73.6155 8.80374 73.3816 9.24077C73.1538 9.67164 73.0369 10.1918 73.0307 10.8011ZM88.5861 19.2678C87.6813 19.2678 86.875 19.1108 86.1671 18.7969C85.4592 18.4768 84.8991 18.0059 84.4867 17.3842C84.0805 16.7564 83.8773 15.9747 83.8773 15.0391C83.8773 14.2512 84.022 13.5895 84.3113 13.054C84.6006 12.5185 84.9945 12.0876 85.4931 11.7614C85.9917 11.4351 86.558 11.1889 87.192 11.0227C87.8321 10.8565 88.503 10.7396 89.2047 10.6719C90.0296 10.5857 90.6943 10.5057 91.1991 10.4318C91.7038 10.3518 92.07 10.2348 92.2978 10.081C92.5255 9.92708 92.6394 9.69934 92.6394 9.39773V9.34233C92.6394 8.75758 92.4547 8.30516 92.0854 7.98508C91.7223 7.66501 91.2052 7.50497 90.5343 7.50497C89.8264 7.50497 89.2632 7.66193 88.8447 7.97585C88.4261 8.28362 88.1491 8.6714 88.0137 9.1392L84.3759 8.84375C84.5606 7.98201 84.9237 7.23722 85.4654 6.60938C86.0071 5.97538 86.7057 5.48911 87.5613 5.15057C88.423 4.80587 89.4202 4.63352 90.5528 4.63352C91.3406 4.63352 92.0947 4.72585 92.8148 4.91051C93.5412 5.09517 94.1844 5.38139 94.7445 5.76918C95.3108 6.15696 95.7571 6.65554 96.0833 7.26491C96.4095 7.86813 96.5726 8.59138 96.5726 9.43466V19H92.8425V17.0334H92.7317C92.504 17.4766 92.1993 17.8674 91.8177 18.206C91.436 18.5384 90.9775 18.8 90.442 18.9908C89.9064 19.1754 89.2878 19.2678 88.5861 19.2678ZM89.7126 16.5533C90.2912 16.5533 90.802 16.4394 91.2452 16.2116C91.6884 15.9777 92.0362 15.6638 92.2886 15.2699C92.5409 14.8759 92.6671 14.4297 92.6671 13.9311V12.4261C92.544 12.5062 92.3747 12.58 92.1593 12.6477C91.95 12.7093 91.713 12.7678 91.4484 12.8232C91.1837 12.8724 90.919 12.9186 90.6543 12.9616C90.3896 12.9986 90.1496 13.0324 89.9341 13.0632C89.4725 13.1309 89.0693 13.2386 88.7246 13.3864C88.3799 13.5341 88.1122 13.7341 87.9214 13.9865C87.7305 14.2327 87.6351 14.5405 87.6351 14.9098C87.6351 15.4453 87.829 15.8546 88.2168 16.1378C88.6108 16.4148 89.1093 16.5533 89.7126 16.5533ZM98.8441 19V4.81818H102.593V7.32031H102.759C103.054 6.48935 103.547 5.83381 104.236 5.35369C104.926 4.87358 105.75 4.63352 106.711 4.63352C107.683 4.63352 108.511 4.87666 109.194 5.36293C109.878 5.84304 110.333 6.4955 110.561 7.32031H110.708C110.998 6.50781 111.521 5.85843 112.278 5.37216C113.041 4.87973 113.943 4.63352 114.983 4.63352C116.307 4.63352 117.381 5.05516 118.206 5.89844C119.037 6.73556 119.452 7.92353 119.452 9.46236V19H115.528V10.2379C115.528 9.45005 115.319 8.85914 114.9 8.4652C114.482 8.07126 113.958 7.87429 113.331 7.87429C112.617 7.87429 112.06 8.10204 111.659 8.55753C111.259 9.00687 111.059 9.60085 111.059 10.3395V19H107.246V10.1548C107.246 9.45928 107.046 8.9053 106.646 8.4929C106.252 8.08049 105.732 7.87429 105.086 7.87429C104.649 7.87429 104.255 7.98509 103.904 8.20668C103.559 8.42211 103.285 8.7268 103.082 9.12074C102.879 9.50852 102.777 9.96401 102.777 10.4872V19H98.8441ZM126.37 3.38707V0.0909085H141.9V3.38707H136.111V19H132.159V3.38707H126.37ZM148.01 19.277C146.551 19.277 145.296 18.9815 144.243 18.3906C143.197 17.7936 142.39 16.9503 141.824 15.8608C141.258 14.7652 140.975 13.4695 140.975 11.9737C140.975 10.5149 141.258 9.23461 141.824 8.13281C142.39 7.03101 143.187 6.17235 144.215 5.55682C145.25 4.94129 146.462 4.63352 147.853 4.63352C148.789 4.63352 149.66 4.78433 150.466 5.08594C151.279 5.38139 151.986 5.82765 152.59 6.42472C153.199 7.02178 153.673 7.77273 154.012 8.67756C154.35 9.57623 154.519 10.6288 154.519 11.8352V12.9155H142.544V10.478H150.817C150.817 9.91169 150.694 9.41004 150.448 8.97301C150.201 8.53598 149.86 8.19437 149.423 7.94815C148.992 7.69579 148.49 7.5696 147.918 7.5696C147.321 7.5696 146.791 7.7081 146.33 7.98508C145.874 8.25592 145.517 8.62216 145.259 9.08381C145 9.5393 144.868 10.0471 144.862 10.6072V12.9247C144.862 13.6264 144.991 14.2327 145.25 14.7436C145.514 15.2545 145.887 15.6484 146.367 15.9254C146.847 16.2024 147.416 16.3409 148.075 16.3409C148.512 16.3409 148.912 16.2794 149.275 16.1562C149.638 16.0331 149.949 15.8485 150.208 15.6023C150.466 15.3561 150.663 15.0545 150.799 14.6974L154.436 14.9375C154.252 15.8116 153.873 16.5748 153.301 17.2273C152.734 17.8736 152.002 18.3783 151.103 18.7415C150.211 19.0985 149.18 19.277 148.01 19.277ZM162.714 19.277C161.261 19.277 160.012 18.9692 158.965 18.3537C157.925 17.732 157.125 16.8703 156.565 15.7685C156.011 14.6667 155.734 13.3987 155.734 11.9645C155.734 10.5118 156.014 9.23769 156.574 8.14204C157.14 7.04025 157.943 6.18158 158.984 5.56605C160.024 4.94437 161.261 4.63352 162.695 4.63352C163.933 4.63352 165.016 4.85819 165.945 5.30753C166.875 5.75686 167.61 6.38778 168.152 7.20028C168.694 8.01278 168.992 8.96686 169.048 10.0625H165.336C165.231 9.35464 164.954 8.78527 164.505 8.3544C164.062 7.91738 163.48 7.69886 162.76 7.69886C162.151 7.69886 161.618 7.86506 161.163 8.19744C160.713 8.52367 160.363 9.00071 160.11 9.62855C159.858 10.2564 159.732 11.0166 159.732 11.9091C159.732 12.8139 159.855 13.5833 160.101 14.2173C160.353 14.8513 160.707 15.3345 161.163 15.6669C161.618 15.9993 162.151 16.1655 162.76 16.1655C163.209 16.1655 163.613 16.0732 163.97 15.8885C164.333 15.7038 164.631 15.4361 164.865 15.0852C165.105 14.7282 165.262 14.3004 165.336 13.8018H169.048C168.986 14.8852 168.691 15.8393 168.161 16.6641C167.638 17.4827 166.915 18.1229 165.992 18.5845C165.068 19.0462 163.976 19.277 162.714 19.277ZM174.719 10.8011V19H170.786V0.0909085H174.608V7.32031H174.775C175.095 6.48319 175.612 5.82765 176.326 5.35369C177.04 4.87358 177.935 4.63352 179.012 4.63352C179.997 4.63352 180.856 4.84896 181.588 5.27983C182.327 5.70454 182.9 6.317 183.306 7.11719C183.718 7.91122 183.921 8.86222 183.915 9.97017V19H179.982V10.6719C179.988 9.79782 179.767 9.11766 179.317 8.63139C178.874 8.14512 178.252 7.90199 177.452 7.90199C176.917 7.90199 176.443 8.01586 176.03 8.24361C175.624 8.47135 175.304 8.80374 175.07 9.24077C174.842 9.67164 174.725 10.1918 174.719 10.8011ZM186.231 24.3182V4.81818H190.108V7.20028H190.284C190.456 6.81865 190.705 6.43087 191.032 6.03693C191.364 5.63684 191.795 5.30445 192.324 5.03977C192.86 4.76894 193.525 4.63352 194.319 4.63352C195.353 4.63352 196.307 4.90436 197.181 5.44602C198.055 5.98153 198.754 6.79096 199.277 7.87429C199.8 8.95147 200.062 10.3026 200.062 11.9276C200.062 13.5095 199.806 14.8452 199.295 15.9347C198.79 17.018 198.101 17.8397 197.227 18.3999C196.359 18.9538 195.387 19.2308 194.309 19.2308C193.546 19.2308 192.897 19.1046 192.361 18.8523C191.832 18.5999 191.398 18.2829 191.059 17.9013C190.721 17.5135 190.462 17.1226 190.284 16.7287H190.164V24.3182H186.231ZM190.081 11.9091C190.081 12.7524 190.198 13.4879 190.432 14.1158C190.665 14.7436 191.004 15.233 191.447 15.5838C191.89 15.9285 192.429 16.1009 193.063 16.1009C193.703 16.1009 194.245 15.9254 194.688 15.5746C195.131 15.2176 195.467 14.7251 195.694 14.0973C195.928 13.4633 196.045 12.7339 196.045 11.9091C196.045 11.0904 195.931 10.3703 195.704 9.74858C195.476 9.12689 195.14 8.64062 194.697 8.28977C194.254 7.93892 193.709 7.76349 193.063 7.76349C192.423 7.76349 191.881 7.93276 191.438 8.27131C191.001 8.60985 190.665 9.08996 190.432 9.71165C190.198 10.3333 190.081 11.0658 190.081 11.9091ZM201.904 19V4.81818H205.717V7.29261H205.865C206.123 6.4124 206.557 5.74763 207.166 5.2983C207.776 4.8428 208.478 4.61506 209.272 4.61506C209.469 4.61506 209.681 4.62737 209.909 4.65199C210.136 4.67661 210.336 4.71046 210.509 4.75355V8.24361C210.324 8.18821 210.069 8.13897 209.742 8.09588C209.416 8.05279 209.118 8.03125 208.847 8.03125C208.268 8.03125 207.751 8.15743 207.296 8.4098C206.846 8.65601 206.489 9.00071 206.225 9.44389C205.966 9.88707 205.837 10.398 205.837 10.9766V19H201.904ZM217.51 19.277C216.076 19.277 214.835 18.9723 213.789 18.3629C212.749 17.7474 211.945 16.8918 211.379 15.7962C210.813 14.6944 210.53 13.4171 210.53 11.9645C210.53 10.4995 210.813 9.21922 211.379 8.12358C211.945 7.02178 212.749 6.16619 213.789 5.55682C214.835 4.94129 216.076 4.63352 217.51 4.63352C218.944 4.63352 220.181 4.94129 221.221 5.55682C222.268 6.16619 223.074 7.02178 223.641 8.12358C224.207 9.21922 224.49 10.4995 224.49 11.9645C224.49 13.4171 224.207 14.6944 223.641 15.7962C223.074 16.8918 222.268 17.7474 221.221 18.3629C220.181 18.9723 218.944 19.277 217.51 19.277ZM217.528 16.2301C218.181 16.2301 218.726 16.0455 219.163 15.6761C219.6 15.3007 219.929 14.7898 220.15 14.1435C220.378 13.4972 220.492 12.7616 220.492 11.9368C220.492 11.112 220.378 10.3764 220.15 9.73011C219.929 9.08381 219.6 8.57292 219.163 8.19744C218.726 7.82197 218.181 7.63423 217.528 7.63423C216.87 7.63423 216.316 7.82197 215.866 8.19744C215.423 8.57292 215.088 9.08381 214.86 9.73011C214.638 10.3764 214.528 11.112 214.528 11.9368C214.528 12.7616 214.638 13.4972 214.86 14.1435C215.088 14.7898 215.423 15.3007 215.866 15.6761C216.316 16.0455 216.87 16.2301 217.528 16.2301Z" fill="#1E1E1E"/>
</g>
<defs>
<filter id="filter0_d_966_219" x="39.6182" y="0.0908203" width="184.872" height="24.2275" filterUnits="userSpaceOnUse" color-interpolation-filters="sRGB">
<feFlood flood-opacity="0" result="BackgroundImageFix"/>
<feColorMatrix in="SourceAlpha" type="matrix" values="0 0 0 0 0 0 0 0 0 0 0 0 0 0 0 0 0 0 127 0" result="hardAlpha"/>
<feOffset/>
<feComposite in2="hardAlpha" operator="out"/>
<feColorMatrix type="matrix" values="0 0 0 0 0 0 0 0 0 0 0 0 0 0 0 0 0 0 0.25 0"/>
<feBlend mode="normal" in2="BackgroundImageFix" result="effect1_dropShadow_966_219"/>
<feBlend mode="normal" in="SourceGraphic" in2="effect1_dropShadow_966_219" result="shape"/>
</filter>
</defs>
</svg>
