<svg width="20" height="20" viewBox="0 0 20 20" fill="none" xmlns="http://www.w3.org/2000/svg">
<path d="M6.95163 8.19378C5.76858 8.51401 4.81526 9.45393 4.50784 10.6736H3.52932C3.42143 10.6736 3.33401 10.761 3.33401 10.8689V12.0601C3.33401 12.168 3.42143 12.2554 3.52932 12.2554H4.01084V14.6483C4.01084 14.7562 4.09827 14.8437 4.20616 14.8437H15.7939C15.9017 14.8437 15.9892 14.7562 15.9892 14.6483V12.2554H16.4707C16.5786 12.2554 16.666 12.168 16.666 12.0601V10.8689C16.666 10.761 16.5786 10.6736 16.4707 10.6736H15.5318V7.72475C15.5318 7.61686 15.4444 7.52944 15.3365 7.52944H10.3217C10.2138 7.52944 10.1264 7.61686 10.1264 7.72475V8.93905C9.72663 8.58514 9.25237 8.33081 8.741 8.19327C9.17245 7.90389 9.45709 7.41174 9.45709 6.85432C9.45709 5.96592 8.73432 5.24315 7.84592 5.24315C6.95752 5.24315 6.23467 5.96592 6.23467 6.85432C6.23467 7.41214 6.51967 7.90448 6.95163 8.19378ZM15.5985 14.453H4.40143V12.2554H15.5985V14.453ZM16.2753 11.8648H3.72459V11.0642H16.2753V11.8648ZM15.1412 7.92006V10.6736H10.517V7.92006H15.1412ZM10.1264 9.48975V10.6736H4.91264C5.28389 9.38089 6.48081 8.46557 7.84588 8.46557C8.71959 8.46553 9.54663 8.83799 10.1264 9.48975ZM7.84588 5.63378C8.51889 5.63378 9.06643 6.18131 9.06643 6.85432C9.06643 7.52733 8.51889 8.07491 7.84588 8.07491C7.17288 8.07491 6.6253 7.52733 6.6253 6.85432C6.6253 6.18131 7.17288 5.63378 7.84588 5.63378ZM18.569 9.56796C18.4345 8.14487 17.9421 6.76546 17.1451 5.57881C16.3662 4.41893 15.306 3.45964 14.0759 2.79796C13.9484 2.16827 13.4863 1.65003 12.7628 1.33163C11.3623 0.715221 9.43838 1.01186 7.86139 2.08741C7.79413 2.13331 7.76241 2.21608 7.7817 2.29514C7.80104 2.37421 7.86741 2.43299 7.94827 2.44268C9.04791 2.57421 9.40381 2.88803 10.1128 3.51331L10.2032 3.59292C10.7017 4.03155 11.3457 4.20643 11.9539 4.20643C12.3128 4.20643 12.6592 4.14546 12.9557 4.04186C13.4688 3.8626 13.8458 3.56092 14.0123 3.20788C14.8261 3.66284 15.5434 4.24354 16.145 4.91964C15.9386 4.93706 15.7196 4.96487 15.524 5.00905C15.1637 4.61921 14.723 4.41417 14.2411 4.41417C14.2328 4.41417 14.2244 4.41424 14.216 4.41436C13.4345 4.42589 12.6024 4.96753 11.8097 5.98081C11.7651 6.03784 11.7557 6.11483 11.7853 6.18089C11.8149 6.24694 11.8785 6.29128 11.9507 6.29604C12.0578 6.30311 12.2306 6.34495 12.4306 6.39335C12.7918 6.48081 13.2771 6.59831 13.7692 6.59831C14.4868 6.59831 15.2189 6.34842 15.6024 5.39174C15.8216 5.34171 16.118 5.30667 16.4561 5.29085C17.4192 6.51194 18.0284 8.00014 18.1801 9.60467C18.3866 11.7897 17.7299 13.9242 16.3308 15.6153C14.9319 17.3063 12.958 18.3514 10.773 18.5578C8.58838 18.7642 6.45342 18.1076 4.76241 16.7086C3.07139 15.3096 2.02635 13.3358 1.81987 11.1508C1.53635 8.15057 2.91354 5.24194 5.41409 3.55999C5.50358 3.49979 5.52733 3.37846 5.46709 3.28893C5.40698 3.19952 5.28561 3.17565 5.19604 3.23592C2.57666 4.99784 1.13397 8.04475 1.43096 11.1876C1.64725 13.4765 2.74198 15.5441 4.51338 17.0096C6.07116 18.2984 7.98811 18.9859 9.98448 18.9858C10.2583 18.9858 10.5337 18.9729 10.8098 18.9468C13.0987 18.7305 15.1663 17.6358 16.6318 15.8644C18.0974 14.093 18.7853 11.8568 18.569 9.56796ZM12.8269 3.67315C12.1352 3.91483 11.1355 3.89299 10.4612 3.29967L10.3712 3.22034C9.76256 2.6837 9.3576 2.32655 8.51209 2.14046C10.1451 1.20682 11.7116 1.29585 12.6055 1.68917C13.2258 1.96214 13.6139 2.39842 13.702 2.92022C13.6306 3.22581 13.3065 3.50561 12.8269 3.67315ZM12.5226 6.01378C12.4527 5.99682 12.3874 5.98104 12.3263 5.96698C12.9753 5.21413 13.6264 4.81382 14.2217 4.80503C14.6012 4.80049 14.9406 4.95487 15.2313 5.26745C14.7457 6.44139 13.6285 6.28151 12.5226 6.01378Z" fill="#686868"/>
</svg>
