<svg width="20" height="20" viewBox="0 0 20 20" fill="none" xmlns="http://www.w3.org/2000/svg">
<path d="M5.19511 8.8813C4.94995 8.8813 4.70495 8.80366 4.49123 8.64834C4.06335 8.33762 3.89239 7.8119 4.05587 7.3091L4.29447 6.5751C4.37735 6.3197 4.28723 6.04194 4.06991 5.88402L3.44551 5.43042C3.01763 5.11958 2.84691 4.5939 3.01035 4.09118C3.17359 3.58846 3.62095 3.26358 4.14959 3.26358H4.92115C5.18987 3.26358 5.42623 3.09182 5.50931 2.83638L5.74771 2.1025C5.91095 1.59978 6.35787 1.2749 6.88651 1.2749C7.41539 1.2749 7.86251 1.59966 8.02599 2.1025L8.26439 2.83638C8.34747 3.09186 8.58383 3.26358 8.85235 3.26358H9.62411C9.77919 3.26358 9.92815 3.29086 10.0667 3.34474C10.2159 3.4027 10.2899 3.57058 10.232 3.71978C10.1741 3.86894 10.0059 3.94322 9.85711 3.8849C9.78555 3.85718 9.70723 3.84314 9.62415 3.84314H8.85239C8.33187 3.84314 7.87411 3.51058 7.71339 3.01542L7.47499 2.28158C7.37239 1.96666 7.10391 1.85438 6.88679 1.8545C6.66967 1.8545 6.40115 1.96666 6.29883 2.28158L6.06043 3.01542C5.89971 3.51058 5.44167 3.84314 4.92123 3.84314H4.14967C3.81843 3.84314 3.62871 4.06378 3.56171 4.27026C3.49447 4.47686 3.51823 4.76686 3.78607 4.96158L4.41047 5.41518C4.83155 5.72114 5.00659 6.25942 4.84559 6.75434L4.60699 7.48834C4.50487 7.80322 4.65611 8.05186 4.83179 8.1795C5.00747 8.3071 5.29091 8.37414 5.55851 8.17938L6.07923 7.8011C6.20851 7.70694 6.38987 7.73578 6.48403 7.86518C6.57795 7.9947 6.54923 8.1759 6.41971 8.26998L5.89899 8.64826C5.68523 8.80366 5.44007 8.8813 5.19511 8.8813Z" fill="#686868"/>
<path d="M14.4169 12.5857C14.0664 12.5857 13.7161 12.4746 13.4105 12.2526L12.9858 11.9441C12.8563 11.85 12.8275 11.6689 12.9215 11.5394C13.0159 11.4099 13.197 11.3814 13.3263 11.4752L13.751 11.7837C14.242 12.1403 14.7605 12.0172 15.0824 11.7838C15.4041 11.55 15.6813 11.0946 15.4938 10.5176L15.1205 9.36804C14.8904 8.66044 15.1404 7.89116 15.7424 7.45388L16.7202 6.74344C17.2108 6.38688 17.2543 5.85564 17.1315 5.47732C17.0086 5.099 16.6611 4.69476 16.0543 4.69476H14.8456C14.1017 4.69476 13.4474 4.21932 13.2175 3.51172L12.844 2.36216C12.6563 1.7852 12.1646 1.57964 11.7668 1.57964C11.369 1.57964 10.8773 1.78516 10.6896 2.36216L10.3163 3.51172C10.0865 4.21932 9.43197 4.69476 8.68801 4.69476H7.47929C6.87253 4.69476 6.52505 5.09896 6.40209 5.47732C6.27937 5.8556 6.32285 6.38688 6.81345 6.74344L7.79149 7.45388C7.92097 7.54796 7.94973 7.72916 7.85577 7.85864C7.76161 7.98804 7.58049 8.017 7.45097 7.92272L6.47293 7.21228C5.86165 6.76808 5.61737 6.0168 5.85105 5.2982C6.08449 4.57948 6.72357 4.11512 7.47929 4.11512H8.68801C9.18021 4.11512 9.61309 3.80068 9.76521 3.33256L10.1385 2.18304C10.372 1.46436 11.0111 1 11.7669 1C12.5226 1 13.1617 1.46436 13.3951 2.18304L13.7687 3.33256C13.9208 3.80068 14.3537 4.11512 14.8456 4.11512H16.0544C16.8101 4.11512 17.4492 4.57948 17.6826 5.2982C17.9163 6.0168 17.672 6.76808 17.0607 7.21228L16.0829 7.92272C15.6849 8.21204 15.5197 8.72088 15.6715 9.18896L16.0449 10.3385C16.2785 11.0572 16.0345 11.8085 15.423 12.2527C15.1173 12.4746 14.7671 12.5857 14.4169 12.5857Z" fill="#686868"/>
<path d="M9.01319 11.8805C8.94639 11.8805 8.87915 11.8575 8.82439 11.8105C8.70303 11.7061 8.68943 11.5232 8.79379 11.4018L11.9701 7.70883C12.0745 7.58747 12.2572 7.57355 12.3788 7.67803C12.5001 7.78239 12.5137 7.96531 12.4093 8.08667L9.23299 11.7797C9.17575 11.8463 9.09467 11.8805 9.01319 11.8805Z" fill="#686868"/>
<path d="M6.49455 14.8086C6.43339 14.8086 6.37183 14.7893 6.31931 14.7493C6.19183 14.6524 6.16715 14.4706 6.26407 14.3433C6.86807 13.5494 6.17667 12.7586 6.14679 12.7253C6.05011 12.6169 6.04851 12.4534 6.14339 12.3433L7.90907 10.2906C8.01323 10.1695 8.19611 10.1557 8.31771 10.2598C8.43903 10.3642 8.45263 10.5473 8.34827 10.6685L6.73563 12.5435C7.05667 13.027 7.33787 13.8892 6.72543 14.6942C6.66839 14.7692 6.58191 14.8086 6.49455 14.8086Z" fill="#686868"/>
<path d="M7.62155 18.9998C7.55479 18.9998 7.48751 18.9768 7.43275 18.9297C7.31143 18.8253 7.29783 18.6424 7.40219 18.521C7.87783 17.9678 8.43275 17.4908 9.05151 17.1033C9.56767 16.7799 10.0307 16.382 10.4278 15.9206L11.7576 14.3743C11.862 14.2531 12.0447 14.239 12.1663 14.3435C12.2876 14.4479 12.3012 14.6308 12.1968 14.7522L10.867 16.2985C10.4321 16.8041 9.92471 17.2402 9.35895 17.5946C8.78979 17.9511 8.27923 18.3899 7.84139 18.8989C7.78415 18.9656 7.70307 18.9998 7.62155 18.9998Z" fill="#686868"/>
<path d="M2.52 17.2894C2.4532 17.2894 2.38596 17.2663 2.3312 17.2193C2.20988 17.1149 2.19624 16.9319 2.30064 16.8106L4.23856 14.5574L4.17248 12.8799C4.14848 12.2652 4.35608 11.67 4.7568 11.2038L6.51888 9.15564C6.93364 8.67304 7.64588 8.57368 8.13988 8.92936C8.34388 9.07616 8.49512 9.2832 8.57392 9.51732L10.8879 6.82704C11.2153 6.44648 11.7503 6.34728 12.1603 6.59032C12.4147 6.74156 12.5879 6.99388 12.6352 7.28276C12.6826 7.57176 12.6002 7.86472 12.4093 8.0866C12.3052 8.20784 12.1225 8.22176 12.0007 8.11724C11.8794 8.01276 11.8658 7.82984 11.9701 7.70852C12.0489 7.61692 12.0828 7.4958 12.0634 7.37636C12.0434 7.25524 11.9728 7.15316 11.8644 7.0886C11.6994 6.9908 11.4688 7.04072 11.3271 7.20496L8.34888 10.6676C8.24428 10.7895 8.06156 10.8036 7.9398 10.6988C7.81844 10.5945 7.80488 10.4116 7.90924 10.2902C8.02156 10.1596 8.07204 9.99352 8.05164 9.82236C8.03128 9.65144 7.94252 9.50132 7.80124 9.39976C7.54884 9.21844 7.17864 9.27708 6.95836 9.53344L5.19628 11.5816C4.89132 11.9364 4.73328 12.3894 4.75164 12.8571L4.82228 14.6485C4.82524 14.7218 4.80036 14.7933 4.75236 14.8488L2.73988 17.1886C2.6826 17.2552 2.60152 17.2894 2.52 17.2894Z" fill="#686868"/>
<path d="M9.60203 12.9619C9.37383 12.9619 9.14471 12.8836 8.95887 12.7236C8.75871 12.5516 8.63779 12.3119 8.61811 12.0489C8.59819 11.786 8.68219 11.5309 8.85427 11.331L9.59415 10.471C9.94935 10.058 10.574 10.0116 10.9865 10.366C11.1866 10.5382 11.3075 10.7778 11.3272 11.0408C11.3471 11.3038 11.2631 11.5588 11.0911 11.7587L10.3512 12.6189C10.1563 12.8456 9.87987 12.9619 9.60203 12.9619ZM10.3431 10.7072C10.228 10.7072 10.114 10.7552 10.0334 10.8488L9.29347 11.709C9.14679 11.8796 9.16623 12.1376 9.33671 12.2842C9.50739 12.4311 9.76527 12.4114 9.91199 12.2409L10.6519 11.3808C10.7986 11.2101 10.7791 10.9522 10.6086 10.8056C10.5319 10.7395 10.4372 10.7072 10.3431 10.7072Z" fill="#686868"/>
<path d="M10.6594 13.8722C10.4233 13.8722 10.1978 13.7888 10.0169 13.6334C9.60418 13.2781 9.5571 12.6534 9.91234 12.2408L10.6522 11.3806C10.8243 11.1806 11.0638 11.0595 11.3269 11.0399C11.5908 11.0204 11.8451 11.1042 12.0447 11.276C12.4573 11.631 12.5043 12.2556 12.1495 12.6683L11.4092 13.5287C11.2374 13.7286 10.9979 13.8496 10.7348 13.8694C10.7097 13.8713 10.6843 13.8722 10.6594 13.8722ZM11.4011 11.6168C11.2863 11.6168 11.172 11.6648 11.0914 11.7585L10.3515 12.6187C10.2051 12.7892 10.2245 13.0472 10.395 13.1939C10.4774 13.265 10.5831 13.2988 10.6913 13.2914C10.8 13.2832 10.8989 13.2333 10.9698 13.1507L11.7101 12.2903C11.8566 12.12 11.8371 11.8619 11.6667 11.7153C11.5899 11.6492 11.4953 11.6168 11.4011 11.6168Z" fill="#686868"/>
<path d="M11.4475 15.096C11.2114 15.096 10.9857 15.0126 10.805 14.857C10.3923 14.5019 10.3452 13.8772 10.7004 13.4646L11.4403 12.6044C11.7951 12.1917 12.4197 12.1444 12.8329 12.4996C13.2456 12.8549 13.2927 13.4796 12.9375 13.8922L12.1976 14.7524C12.0255 14.9525 11.786 15.0735 11.5229 15.0932C11.4978 15.0951 11.4724 15.096 11.4475 15.096ZM12.1892 12.8406C12.0744 12.8406 11.9601 12.8887 11.8795 12.9823L11.1396 13.8425C10.9931 14.013 11.0126 14.271 11.1831 14.4177C11.3533 14.5643 11.6116 14.5451 11.7583 14.3744L12.4982 13.5142C12.6447 13.3438 12.6253 13.0858 12.4548 12.9391C12.378 12.873 12.2833 12.8406 12.1892 12.8406Z" fill="#686868"/>
</svg>
