<svg width="20" height="20" viewBox="0 0 20 20" fill="none" xmlns="http://www.w3.org/2000/svg">
<path fill-rule="evenodd" clip-rule="evenodd" d="M16.3125 2.3125C15.8293 2.3125 15.4375 2.70425 15.4375 3.1875C15.4375 3.67075 15.8293 4.0625 16.3125 4.0625C16.7957 4.0625 17.1875 3.67075 17.1875 3.1875C17.1875 2.70425 16.7957 2.3125 16.3125 2.3125ZM14.8125 3.1875C14.8125 2.35907 15.4841 1.6875 16.3125 1.6875C17.1409 1.6875 17.8125 2.35907 17.8125 3.1875C17.8125 4.01593 17.1409 4.6875 16.3125 4.6875C15.4841 4.6875 14.8125 4.01593 14.8125 3.1875Z" fill="#686868"/>
<path fill-rule="evenodd" clip-rule="evenodd" d="M16.3125 0C16.4851 0 16.625 0.139911 16.625 0.3125V1.09375C16.625 1.26634 16.4851 1.40625 16.3125 1.40625C16.1399 1.40625 16 1.26634 16 1.09375V0.3125C16 0.139911 16.1399 0 16.3125 0Z" fill="#686868"/>
<path fill-rule="evenodd" clip-rule="evenodd" d="M16.3125 4.9375C16.4851 4.9375 16.625 5.07741 16.625 5.25V6.0625C16.625 6.23509 16.4851 6.375 16.3125 6.375C16.1399 6.375 16 6.23509 16 6.0625V5.25C16 5.07741 16.1399 4.9375 16.3125 4.9375Z" fill="#686868"/>
<path fill-rule="evenodd" clip-rule="evenodd" d="M18.0625 3.1875C18.0625 3.01491 18.2024 2.875 18.375 2.875H19.1562C19.3288 2.875 19.4687 3.01491 19.4687 3.1875C19.4687 3.36009 19.3288 3.5 19.1562 3.5H18.375C18.2024 3.5 18.0625 3.36009 18.0625 3.1875Z" fill="#686868"/>
<path fill-rule="evenodd" clip-rule="evenodd" d="M13.125 3.1875C13.125 3.01491 13.2649 2.875 13.4375 2.875H14.2187C14.3913 2.875 14.5312 3.01491 14.5312 3.1875C14.5312 3.36009 14.3913 3.5 14.2187 3.5H13.4375C13.2649 3.5 13.125 3.36009 13.125 3.1875Z" fill="#686868"/>
<path fill-rule="evenodd" clip-rule="evenodd" d="M17.5603 4.43528C17.6823 4.31324 17.8802 4.31324 18.0022 4.43528L18.5647 4.99778C18.6868 5.11982 18.6868 5.31768 18.5647 5.43972C18.4427 5.56176 18.2448 5.56176 18.1228 5.43972L17.5603 4.87722C17.4382 4.75518 17.4382 4.55732 17.5603 4.43528Z" fill="#686868"/>
<path fill-rule="evenodd" clip-rule="evenodd" d="M14.0603 0.935279C14.1823 0.81324 14.3802 0.81324 14.5022 0.935279L15.0335 1.46653C15.1555 1.58857 15.1555 1.78643 15.0335 1.90847C14.9114 2.03051 14.7136 2.03051 14.5915 1.90847L14.0603 1.37722C13.9382 1.25518 13.9382 1.05732 14.0603 0.935279Z" fill="#686868"/>
<path fill-rule="evenodd" clip-rule="evenodd" d="M15.0271 4.42906C15.1525 4.54756 15.1582 4.74535 15.0397 4.87082L14.5084 5.43332C14.3899 5.55879 14.1922 5.56445 14.0667 5.44594C13.9412 5.32744 13.9356 5.12966 14.0541 5.00418L14.5853 4.44168C14.7038 4.31621 14.9016 4.31056 15.0271 4.42906Z" fill="#686868"/>
<path fill-rule="evenodd" clip-rule="evenodd" d="M18.5709 0.941681C18.6894 1.06716 18.6838 1.26494 18.5583 1.38344L17.9958 1.91469C17.8703 2.0332 17.6726 2.02754 17.5541 1.90207C17.4356 1.7766 17.4412 1.57881 17.5667 1.46031L18.1292 0.929059C18.2547 0.810556 18.4524 0.816206 18.5709 0.941681Z" fill="#686868"/>
<path fill-rule="evenodd" clip-rule="evenodd" d="M2.56637 2.67388C2.50032 2.25556 2.1333 1.9912 1.70503 2.05882C1.53456 2.08573 1.37454 1.96936 1.34762 1.79888C1.3207 1.6284 1.43708 1.46838 1.60756 1.44147C2.36679 1.32159 3.06227 1.80722 3.18372 2.5764C3.21064 2.74688 3.09426 2.9069 2.92378 2.93382C2.75331 2.96073 2.59329 2.84436 2.56637 2.67388Z" fill="#686868"/>
<path fill-rule="evenodd" clip-rule="evenodd" d="M4.05815 1.35492C4.08653 1.52516 3.97152 1.68617 3.80128 1.71455C3.40366 1.78082 3.11726 2.15631 3.18358 2.57631C3.2105 2.74679 3.09412 2.90681 2.92364 2.93372C2.75317 2.96064 2.59315 2.84426 2.56623 2.67379C2.44504 1.90629 2.97115 1.21928 3.69853 1.09805C3.86877 1.06968 4.02978 1.18468 4.05815 1.35492Z" fill="#686868"/>
<path fill-rule="evenodd" clip-rule="evenodd" d="M9.34762 2.08013C9.28157 1.66181 8.91455 1.39745 8.48628 1.46507C8.31581 1.49198 8.15579 1.37561 8.12887 1.20513C8.10195 1.03465 8.21833 0.874633 8.38881 0.847715C9.14804 0.727837 9.84352 1.21347 9.96497 1.98265C9.99189 2.15313 9.87551 2.31315 9.70503 2.34007C9.53456 2.36698 9.37454 2.25061 9.34762 2.08013Z" fill="#686868"/>
<path fill-rule="evenodd" clip-rule="evenodd" d="M10.8396 0.763807C10.8665 0.934284 10.7501 1.0943 10.5796 1.12122C10.1613 1.18727 9.89696 1.55429 9.96458 1.98256C9.9915 2.15303 9.87512 2.31305 9.70464 2.33997C9.53416 2.36689 9.37414 2.25051 9.34723 2.08003C9.22735 1.3208 9.71298 0.625319 10.4822 0.50387C10.6526 0.476952 10.8127 0.59333 10.8396 0.763807Z" fill="#686868"/>
<path fill-rule="evenodd" clip-rule="evenodd" d="M1.65625 7.125C1.07884 7.125 0.625 7.57884 0.625 8.15625V16.5C0.625 16.6726 0.485089 16.8125 0.3125 16.8125C0.139911 16.8125 0 16.6726 0 16.5V8.15625C0 7.23366 0.733661 6.5 1.65625 6.5H14.2187C17.4214 6.5 20 9.07624 20 12.25V16.5C20 16.6726 19.8601 16.8125 19.6875 16.8125C19.5149 16.8125 19.375 16.6726 19.375 16.5V12.25C19.375 9.42375 17.0786 7.125 14.2187 7.125H1.65625Z" fill="#686868"/>
<path fill-rule="evenodd" clip-rule="evenodd" d="M13.4062 9.375C13.4062 9.20241 13.5462 9.0625 13.7187 9.0625H18.7812C18.9538 9.0625 19.0937 9.20241 19.0937 9.375C19.0937 9.54759 18.9538 9.6875 18.7812 9.6875H14.0312V12.6562H19.6875C19.8601 12.6562 20 12.7962 20 12.9687C20 13.1413 19.8601 13.2812 19.6875 13.2812H13.7187C13.5462 13.2812 13.4062 13.1413 13.4062 12.9687V9.375Z" fill="#686868"/>
<path fill-rule="evenodd" clip-rule="evenodd" d="M8.125 9.5625C8.125 9.38991 8.26491 9.25 8.4375 9.25H11.6875C11.8601 9.25 12 9.38991 12 9.5625V12.8125C12 12.9851 11.8601 13.125 11.6875 13.125H8.4375C8.26491 13.125 8.125 12.9851 8.125 12.8125V9.5625ZM8.75 9.875V12.5H11.375V9.875H8.75Z" fill="#686868"/>
<path fill-rule="evenodd" clip-rule="evenodd" d="M2.78125 9.5625C2.78125 9.38991 2.92116 9.25 3.09375 9.25H6.34375C6.51634 9.25 6.65625 9.38991 6.65625 9.5625V12.8125C6.65625 12.9851 6.51634 13.125 6.34375 13.125H3.09375C2.92116 13.125 2.78125 12.9851 2.78125 12.8125V9.5625ZM3.40625 9.875V12.5H6.03125V9.875H3.40625Z" fill="#686868"/>
<path fill-rule="evenodd" clip-rule="evenodd" d="M0 16.5C0 16.3274 0.139911 16.1875 0.3125 16.1875H1.53125C1.70384 16.1875 1.84375 16.3274 1.84375 16.5C1.84375 16.6726 1.70384 16.8125 1.53125 16.8125H0.625V18H1.625C1.79759 18 1.9375 18.1399 1.9375 18.3125C1.9375 18.4851 1.79759 18.625 1.625 18.625H0.3125C0.139911 18.625 0 18.4851 0 18.3125V16.5Z" fill="#686868"/>
<path fill-rule="evenodd" clip-rule="evenodd" d="M5.15625 16.5C5.15625 16.3274 5.29616 16.1875 5.46875 16.1875H14.4687C14.6413 16.1875 14.7812 16.3274 14.7812 16.5C14.7812 16.6726 14.6413 16.8125 14.4687 16.8125H5.46875C5.29616 16.8125 5.15625 16.6726 5.15625 16.5Z" fill="#686868"/>
<path fill-rule="evenodd" clip-rule="evenodd" d="M5.15625 18.3125C5.15625 18.1399 5.29616 18 5.46875 18H14.4687C14.6413 18 14.7812 18.1399 14.7812 18.3125C14.7812 18.4851 14.6413 18.625 14.4687 18.625H5.46875C5.29616 18.625 5.15625 18.4851 5.15625 18.3125Z" fill="#686868"/>
<path fill-rule="evenodd" clip-rule="evenodd" d="M18 16.5C18 16.3274 18.1399 16.1875 18.3125 16.1875H19.6875C19.8601 16.1875 20 16.3274 20 16.5V18.3125C20 18.4851 19.8601 18.625 19.6875 18.625H18.3125C18.1399 18.625 18 18.4851 18 18.3125C18 18.1399 18.1399 18 18.3125 18H19.375V16.8125H18.3125C18.1399 16.8125 18 16.6726 18 16.5Z" fill="#686868"/>
<path fill-rule="evenodd" clip-rule="evenodd" d="M16.4375 15.6875C15.4883 15.6875 14.7187 16.457 14.7187 17.4062C14.7187 18.3555 15.4883 19.125 16.4375 19.125C17.3867 19.125 18.1562 18.3555 18.1562 17.4062C18.1562 16.457 17.3867 15.6875 16.4375 15.6875ZM14.0938 17.4062C14.0938 16.1118 15.1431 15.0625 16.4375 15.0625C17.7319 15.0625 18.7812 16.1118 18.7812 17.4062C18.7812 18.7007 17.7319 19.75 16.4375 19.75C15.1431 19.75 14.0938 18.7007 14.0938 17.4062Z" fill="#686868"/>
<path fill-rule="evenodd" clip-rule="evenodd" d="M16.4375 16.9375C16.1786 16.9375 15.9687 17.1474 15.9687 17.4062C15.9687 17.6651 16.1786 17.875 16.4375 17.875C16.6964 17.875 16.9062 17.6651 16.9062 17.4062C16.9062 17.1474 16.6964 16.9375 16.4375 16.9375ZM15.3438 17.4062C15.3438 16.8022 15.8334 16.3125 16.4375 16.3125C17.0416 16.3125 17.5312 16.8022 17.5312 17.4062C17.5312 18.0103 17.0416 18.5 16.4375 18.5C15.8334 18.5 15.3438 18.0103 15.3438 17.4062Z" fill="#686868"/>
<path fill-rule="evenodd" clip-rule="evenodd" d="M3.5625 15.6875C2.61326 15.6875 1.84375 16.457 1.84375 17.4062C1.84375 18.3555 2.61326 19.125 3.5625 19.125C4.51174 19.125 5.28125 18.3555 5.28125 17.4062C5.28125 16.457 4.51174 15.6875 3.5625 15.6875ZM1.21875 17.4062C1.21875 16.1118 2.26808 15.0625 3.5625 15.0625C4.85692 15.0625 5.90625 16.1118 5.90625 17.4062C5.90625 18.7007 4.85692 19.75 3.5625 19.75C2.26808 19.75 1.21875 18.7007 1.21875 17.4062Z" fill="#686868"/>
<path fill-rule="evenodd" clip-rule="evenodd" d="M3.5625 16.9375C3.30362 16.9375 3.09375 17.1474 3.09375 17.4062C3.09375 17.6651 3.30362 17.875 3.5625 17.875C3.82138 17.875 4.03125 17.6651 4.03125 17.4062C4.03125 17.1474 3.82138 16.9375 3.5625 16.9375ZM2.46875 17.4062C2.46875 16.8022 2.95844 16.3125 3.5625 16.3125C4.16656 16.3125 4.65625 16.8022 4.65625 17.4062C4.65625 18.0103 4.16656 18.5 3.5625 18.5C2.95844 18.5 2.46875 18.0103 2.46875 17.4062Z" fill="#686868"/>
</svg>
