<svg width="20" height="20" viewBox="0 0 20 20" fill="none" xmlns="http://www.w3.org/2000/svg">
<g clip-path="url(#clip0_870_756)">
<path d="M19.1847 18.5279C19.1847 18.8118 18.9545 19.042 18.6706 19.042H0.514164C0.230217 19.042 0 18.8118 0 18.5279C0 18.2439 0.230217 18.0137 0.514164 18.0137H18.6706C18.9545 18.0137 19.1847 18.2439 19.1847 18.5279ZM9.07049 10.0875C9.16959 10.18 9.2955 10.2257 9.42121 10.2257C9.55875 10.2257 9.69597 10.1709 9.79726 10.0624C9.99097 9.85477 9.97972 9.52944 9.77213 9.33566C8.89066 8.513 9.07923 6.841 9.83679 5.89565C10.8647 4.61313 11.0909 2.32665 9.77207 1.09625C9.56454 0.902477 9.23907 0.913789 9.04536 1.12151C8.85165 1.3291 8.86296 1.65451 9.07062 1.84822C9.86243 2.58688 9.84482 4.24133 9.03437 5.25262C8.50169 5.91737 8.1833 6.80822 8.1608 7.69683C8.13606 8.66795 8.45921 9.51703 9.07049 10.0875ZM20 9.01939V10.0057C20 11.4198 18.8498 12.5701 17.4358 12.5701H16.2881C15.5089 14.7364 13.4334 16.2899 11.0021 16.2899H8.18279C5.08662 16.2899 2.56773 13.7711 2.56773 10.675V5.57417C2.56773 5.29022 2.79795 5.06 3.0819 5.06H6.37993C7.04938 4.04228 7.01943 2.54163 6.2762 1.84815C6.06861 1.65444 6.05736 1.3291 6.25107 1.12145C6.44478 0.913789 6.77018 0.902541 6.97778 1.09632C8.29629 2.32665 8.07012 4.61307 7.0425 5.89558C6.28469 6.84107 6.09605 8.51306 6.97778 9.3356C7.18537 9.52937 7.19668 9.85464 7.00297 10.0624C6.80926 10.27 6.48386 10.2812 6.27627 10.0876C5.6648 9.51703 5.34165 8.66802 5.36626 7.69683C5.38034 7.14314 5.50926 6.58855 5.73337 6.08833H3.59606V10.675C3.59606 13.2041 5.65368 15.2616 8.18279 15.2616H11.0021C13.5312 15.2616 15.5889 13.204 15.5889 10.675V6.08833H11.7229C11.439 6.08833 11.2088 5.85811 11.2088 5.57417C11.2088 5.29022 11.439 5.06 11.7229 5.06H16.103C16.387 5.06 16.6172 5.29022 16.6172 5.57417V6.45506H17.4359C18.8497 6.45506 20 7.60537 20 9.01939ZM18.9717 9.01939C18.9717 8.17243 18.2827 7.48339 17.4358 7.48339H16.6171V11.5418H17.4358C18.2827 11.5418 18.9717 10.8527 18.9717 10.0058V9.01939Z" fill="#686868"/>
</g>
<defs>
<clipPath id="clip0_870_756">
<rect width="20" height="20" fill="white"/>
</clipPath>
</defs>
</svg>
