<svg width="20" height="20" viewBox="0 0 20 20" fill="none" xmlns="http://www.w3.org/2000/svg">
<path d="M1.00012 18.264H19.0001C19.0477 18.2631 19.0944 18.251 19.1364 18.2286C19.1785 18.2062 19.2146 18.1742 19.2419 18.1352C19.2692 18.0962 19.2869 18.0513 19.2935 18.0042C19.3002 17.957 19.2956 17.909 19.2801 17.864L17.8801 14.264C17.8591 14.2063 17.8211 14.1563 17.7711 14.1206C17.7212 14.0849 17.6615 14.0651 17.6001 14.064H13.5101C13.4881 13.92 13.4621 13.778 13.4361 13.644C13.2101 12.512 10.4201 11.6 9.28212 11.268C9.24812 10.804 9.22012 10.378 9.18812 9.93198L9.70612 10.174C9.75326 10.1952 9.80504 10.2039 9.85651 10.1993C9.90799 10.1948 9.95743 10.1771 10.0001 10.148C10.8922 9.56424 11.6074 8.74737 12.0681 7.78598C12.7761 6.51398 12.6961 5.90398 12.5041 5.61598C12.445 5.52518 12.3615 5.45283 12.2631 5.40721C12.1648 5.36159 12.0557 5.34453 11.9481 5.35798C11.8051 5.38262 11.6715 5.4457 11.5615 5.54048C11.4516 5.63525 11.3695 5.75814 11.3241 5.89598C11.1901 6.23598 10.8961 6.41798 10.7361 6.59998C10.5001 7.03398 10.1521 7.61398 9.77212 7.83998L8.86812 7.19998C8.81571 6.97133 8.74891 6.74622 8.66812 6.52598C8.71517 6.53287 8.76259 6.53688 8.81012 6.53798C9.88812 6.53798 10.2841 5.10998 10.2901 4.13798C10.3281 3.88198 10.5221 2.26598 9.57012 1.95198C8.84339 1.68007 8.04285 1.68007 7.31612 1.95198C6.34212 2.27398 6.56612 3.95198 6.59612 4.15198C6.64408 4.63534 6.83094 5.09449 7.13412 5.47398C6.8583 5.51645 6.59494 5.61811 6.36212 5.77198C5.59412 6.27598 5.14412 7.30798 5.02012 8.83798C4.92212 10.06 4.83212 11.698 4.78412 13.218C4.7763 13.5146 4.85108 13.8075 5.00012 14.064H2.62212C2.56419 14.0642 2.50755 14.0812 2.45897 14.1127C2.41039 14.1443 2.37191 14.1892 2.34812 14.242L0.726122 17.842C0.705792 17.8877 0.697198 17.9377 0.70112 17.9875C0.705042 18.0374 0.721357 18.0854 0.748581 18.1274C0.775805 18.1693 0.813075 18.2037 0.857005 18.2276C0.900934 18.2515 0.950131 18.264 1.00012 18.264ZM11.8861 6.10398C11.8953 6.07202 11.9111 6.04234 11.9324 6.01684C11.9538 5.99135 11.9803 5.97062 12.0101 5.95598C12.0561 6.03198 12.0981 6.36798 11.7381 7.11998L11.4301 6.77398C11.6233 6.58164 11.7781 6.35425 11.8861 6.10398ZM8.81612 5.92798C8.25012 5.92798 7.44612 5.09998 7.24612 4.39998H9.68412C9.62012 5.09998 9.34012 5.92798 8.81612 5.92798ZM7.51012 2.50998C7.8165 2.39024 8.14321 2.33114 8.47212 2.33598C8.78518 2.34099 9.09504 2.39985 9.38812 2.50998C9.71212 2.61598 9.75812 3.31998 9.72812 3.79998H7.17012C7.13812 3.31998 7.18412 2.61598 7.51012 2.50998ZM5.62412 8.87598C5.73012 7.56398 6.09812 6.66198 6.69012 6.27598C7.05812 6.04398 7.45212 5.93598 7.69012 6.06198C7.86972 6.20676 7.99974 6.4039 8.06212 6.62598C8.03153 6.58907 7.99318 6.55936 7.94979 6.53897C7.90641 6.51858 7.85906 6.50801 7.81112 6.50801C7.76318 6.50801 7.71584 6.51858 7.67245 6.53897C7.62907 6.55936 7.59071 6.58907 7.56012 6.62598C7.53418 6.66776 7.51778 6.71476 7.5121 6.76361C7.50642 6.81246 7.5116 6.86196 7.52726 6.90858C7.54293 6.9552 7.5687 6.99778 7.60273 7.03329C7.63676 7.0688 7.67821 7.09635 7.72412 7.11398L9.55612 8.43198C9.5957 8.46001 9.64144 8.4781 9.68948 8.48471C9.73752 8.49133 9.78645 8.48627 9.83212 8.46998C10.3301 8.28998 10.7301 7.77198 11.0441 7.25398L11.4441 7.69398C11.053 8.43726 10.4892 9.07581 9.80012 9.55598L7.44012 8.45598C7.42379 8.4491 7.4071 8.44309 7.39012 8.43798C7.31816 8.42081 7.24239 8.43084 7.17737 8.46613C7.11234 8.50143 7.06266 8.55951 7.03785 8.62921C7.01305 8.69891 7.01487 8.77532 7.04298 8.84376C7.07109 8.91219 7.12349 8.96783 7.19012 8.99998L8.56812 9.64198C8.61412 10.27 8.65012 10.872 8.70212 11.524C8.70622 11.5872 8.72975 11.6477 8.76948 11.6971C8.80921 11.7465 8.86321 11.7824 8.92412 11.8C10.7341 12.302 12.7241 13.162 12.8481 13.772C13.1841 15.446 12.7361 15.654 12.5481 15.722C12.3741 15.754 11.2181 15.834 9.62612 15.85C8.42612 15.862 7.24212 15.886 6.69812 15.896V14.83C8.12812 14.63 10.2721 14.386 10.6521 14.46C10.7276 14.469 10.8036 14.4491 10.865 14.4042C10.9263 14.3594 10.9683 14.2929 10.9825 14.2182C10.9967 14.1436 10.9821 14.0663 10.9415 14.0021C10.901 13.9378 10.8376 13.8913 10.7641 13.872C10.1641 13.754 7.07412 14.17 6.38612 14.272C6.25293 14.2717 6.12117 14.2445 5.9988 14.1919C5.87643 14.1393 5.76598 14.0624 5.67412 13.966C5.5809 13.8679 5.50854 13.7519 5.46145 13.6251C5.41435 13.4982 5.39349 13.3631 5.40012 13.228C5.43812 11.716 5.52612 10.09 5.62412 8.87598ZM5.12412 14.856H6.09812V15.456C5.49958 15.3903 4.89569 15.5171 4.37412 15.818C3.99612 16.002 3.85612 16.082 3.79012 15.946C3.82812 15.708 4.49812 15.2 5.12412 14.856ZM2.81612 14.656H4.27812C3.80412 14.972 3.26412 15.42 3.19812 15.856C3.12212 16.702 4.12812 16.746 4.64812 16.352C5.08545 16.0958 5.59556 15.9924 6.09812 16.058C6.08277 16.1067 6.07879 16.1583 6.08649 16.2087C6.09418 16.2592 6.11335 16.3073 6.14251 16.3492C6.17168 16.3911 6.21007 16.4257 6.25472 16.4505C6.29938 16.4753 6.34912 16.4895 6.40012 16.492C6.41612 16.492 8.01612 16.458 9.62812 16.44C10.9281 16.426 12.5241 16.358 12.7341 16.282C13.4181 16.034 13.5841 15.366 13.5621 14.664H17.4001L18.5581 17.664H1.46412L2.81612 14.656Z" fill="#686868"/>
</svg>
