<svg width="20" height="20" viewBox="0 0 20 20" fill="none" xmlns="http://www.w3.org/2000/svg">
<path d="M1.86328 18.5437C1.86328 19.2174 2.41133 19.7655 3.085 19.7655H16.9153C17.589 19.7655 18.137 19.2174 18.137 18.5437V10.0114C18.137 9.3377 17.589 8.78965 16.9153 8.78965H14.0718C13.9137 6.67305 12.1449 4.99805 9.98859 4.99805C7.83426 4.99805 6.06723 6.67305 5.9093 8.78965H3.085C2.41133 8.78965 1.86328 9.3377 1.86328 10.0114V18.5437ZM16.9153 19.1551H3.085C2.74793 19.1551 2.47363 18.8808 2.47363 18.5437V15.0147H17.5267V18.5437C17.5267 18.8808 17.2523 19.1551 16.9153 19.1551ZM7.19008 12.0778C7.92305 12.7663 8.90602 13.1916 9.98863 13.1916C11.0722 13.1916 12.0561 12.7663 12.7898 12.0778H17.4882V14.4044H2.49285V12.0778H7.19008ZM17.5267 10.0114V11.4675H13.3243C13.7473 10.8752 14.0153 10.1672 14.072 9.4H16.9153C17.2523 9.4 17.5267 9.67434 17.5267 10.0114ZM9.98859 5.6084C11.9121 5.6084 13.477 7.17324 13.477 9.0968C13.477 11.0182 11.9121 12.5813 9.98859 12.5813C8.06715 12.5813 6.5041 11.0182 6.5041 9.0968C6.5041 7.17324 8.06719 5.6084 9.98859 5.6084ZM3.085 9.4H5.90914C5.96578 10.1672 6.23344 10.8752 6.65602 11.4675H2.47363V10.0114C2.47363 9.67434 2.74797 9.4 3.085 9.4Z" fill="#686868"/>
<path d="M6.07484 17.0244H3.80027C3.63176 17.0244 3.49512 17.1611 3.49512 17.3296C3.49512 17.4981 3.63176 17.6347 3.80027 17.6347H6.07484C6.24336 17.6347 6.38 17.4981 6.38 17.3296C6.38004 17.1611 6.2434 17.0244 6.07484 17.0244Z" fill="#686868"/>
<path d="M8.75589 9.67769L8.56906 10.7674C8.52644 11.0171 8.78945 11.2063 9.01191 11.0891L9.99042 10.5747L10.9689 11.0891C11.1921 11.2059 11.4544 11.0172 11.4118 10.7674L11.225 9.67769L12.0165 8.90612C12.1975 8.72968 12.0974 8.42175 11.8473 8.3855L10.7534 8.22667L10.2642 7.23534C10.1614 7.02702 9.81953 7.02702 9.71671 7.23534L9.22753 8.22667L8.13355 8.3855C7.88367 8.42175 7.78339 8.72964 7.96441 8.90612L8.75589 9.67769ZM9.47398 8.80765C9.57335 8.79319 9.65933 8.73077 9.7039 8.64061L9.99042 8.05995L10.2769 8.64061C10.3215 8.73077 10.4075 8.79319 10.5069 8.80765L11.1476 8.90061L10.6841 9.35257C10.6121 9.42276 10.5793 9.52378 10.5961 9.62272L10.7057 10.2612L10.1324 9.95976C10.0446 9.91351 9.93789 9.91261 9.84839 9.95976L9.27515 10.2612L9.38468 9.62272C9.40152 9.52378 9.36874 9.42276 9.29675 9.35257L8.8332 8.90061L9.47398 8.80765Z" fill="#686868"/>
<path d="M9.72754 0.54002V3.17014C9.72754 3.33865 9.86418 3.47529 10.0327 3.47529C10.2012 3.47529 10.3379 3.33865 10.3379 3.17014V0.54002C10.3379 0.371504 10.2012 0.234863 10.0327 0.234863C9.86418 0.234863 9.72754 0.371504 9.72754 0.54002Z" fill="#686868"/>
<path d="M15.0087 1.73027L13.7419 4.03511C13.6607 4.18277 13.7146 4.36827 13.8625 4.44948C14.008 4.52972 14.1948 4.47827 14.2768 4.32894L15.5437 2.02409C15.6249 1.87644 15.5709 1.69093 15.4231 1.60972C15.2753 1.52819 15.0898 1.58245 15.0087 1.73027Z" fill="#686868"/>
<path d="M4.5562 1.67668C4.40929 1.75922 4.35698 1.94535 4.43952 2.09227L5.72737 4.38531C5.81011 4.53254 5.99655 4.58418 6.14296 4.50199C6.28988 4.41946 6.34218 4.23332 6.25964 4.08641L4.97179 1.79336C4.88921 1.64656 4.70339 1.59442 4.5562 1.67668Z" fill="#686868"/>
</svg>
