<svg width="20" height="20" viewBox="0 0 20 20" fill="none" xmlns="http://www.w3.org/2000/svg">
<g clip-path="url(#clip0_870_770)">
<path d="M0.420898 14.8065V16.781C0.420898 17.0904 0.564609 17.364 0.785352 17.5483V18.8606C0.785352 19.3594 1.19125 19.7653 1.69012 19.7653H2.92031C3.41918 19.7653 3.82508 19.3594 3.82508 18.8606V17.7849H10.5864V18.8606C10.5864 19.3594 10.9923 19.7653 11.4912 19.7653H12.7214C13.2204 19.7653 13.6263 19.3594 13.6263 18.8606V17.6771C13.957 17.5128 14.1869 17.1747 14.1869 16.781V14.8065C14.1869 14.739 14.1645 14.6735 14.1234 14.6201C12.8372 12.973 13.0523 13.1995 12.9379 13.1133L12.0883 10.7759C11.7809 9.93412 10.9734 9.36865 10.0789 9.36865H4.6752C3.81305 9.36865 3.04074 9.88228 2.70801 10.6768C1.57293 13.3796 1.62336 13.2306 1.61168 13.3017L0.49418 14.6082C0.446797 14.6635 0.420898 14.7338 0.420898 14.8065ZM3.21477 18.8606C3.21477 19.023 3.08273 19.155 2.92031 19.155H1.69012C1.5277 19.155 1.39566 19.023 1.39566 18.8606V17.7847H1.4234C1.42391 17.7847 1.42437 17.7849 1.42488 17.7849H3.21477V18.8606ZM12.7214 19.155H11.4913C11.3288 19.155 11.1968 19.0229 11.1968 18.8605V17.7848H13.016V18.8605C13.016 19.023 12.8839 19.155 12.7214 19.155ZM3.27066 10.9131C3.50848 10.3457 4.0598 9.97897 4.6752 9.97897H10.0789C10.7182 9.97897 11.2953 10.3834 11.5148 10.9847L12.264 13.0457H11.19C11.1536 12.1855 10.448 11.4956 9.57902 11.4956C8.71008 11.4956 8.00445 12.1855 7.96809 13.0457H2.37215L3.27066 10.9131ZM10.5796 13.0457H8.5784C8.61395 12.5222 9.04668 12.1059 9.57898 12.1059C10.1114 12.1059 10.5441 12.5222 10.5796 13.0457ZM1.03121 14.9192L2.11168 13.656H12.6088L13.5766 14.9105V16.781C13.5766 16.9977 13.4004 17.174 13.1838 17.1744C9.68488 17.1744 13.732 17.1746 1.42418 17.1744C1.20746 17.174 1.03125 16.9977 1.03125 16.781L1.03121 14.9192Z" fill="#686868"/>
<path d="M2.97449 16.4444H4.12066C4.50941 16.4444 4.82563 16.1282 4.82563 15.7395V15.2123C4.82563 14.8235 4.50941 14.5073 4.12066 14.5073H2.97449C2.58574 14.5073 2.26953 14.8235 2.26953 15.2123V15.7395C2.26957 16.1283 2.58574 16.4444 2.97449 16.4444ZM2.87988 15.2123C2.87988 15.1583 2.92055 15.1177 2.97449 15.1177H4.12066C4.17461 15.1177 4.21527 15.1583 4.21527 15.2123V15.7395C4.21527 15.7934 4.17461 15.8341 4.12066 15.8341H2.97449C2.92055 15.8341 2.87988 15.7934 2.87988 15.7395V15.2123Z" fill="#686868"/>
<path d="M10.4882 16.4444H11.6343C12.0231 16.4444 12.3393 16.1282 12.3393 15.7395V15.2123C12.3393 14.8235 12.0231 14.5073 11.6343 14.5073H10.4882C10.0994 14.5073 9.7832 14.8235 9.7832 15.2123V15.7395C9.7832 16.1283 10.0994 16.4444 10.4882 16.4444ZM10.3936 15.2123C10.3936 15.1583 10.4342 15.1177 10.4882 15.1177H11.6343C11.6874 15.1177 11.7289 15.1592 11.7289 15.2123V15.7395C11.7289 15.7934 11.6883 15.8341 11.6343 15.8341H10.4882C10.4342 15.8341 10.3936 15.7934 10.3936 15.7395V15.2123Z" fill="#686868"/>
<path d="M6.56004 15.7807H8.04816C8.21668 15.7807 8.35332 15.6441 8.35332 15.4756C8.35332 15.3071 8.21668 15.1704 8.04816 15.1704H6.56004C6.39152 15.1704 6.25488 15.3071 6.25488 15.4756C6.25488 15.6441 6.39152 15.7807 6.56004 15.7807Z" fill="#686868"/>
<path d="M15.9674 4.58904C16.4375 4.58904 16.82 4.20654 16.82 3.73643V2.86385C16.82 2.39373 16.4375 2.01123 15.9674 2.01123H14.5473C14.3788 2.01123 14.2422 2.14787 14.2422 2.31639V6.25123C14.2422 6.41975 14.3788 6.55639 14.5473 6.55639C14.7159 6.55639 14.8525 6.41975 14.8525 6.25123V4.58904H15.9674ZM16.2097 2.86385V3.73643C16.2097 3.8701 16.1011 3.97873 15.9674 3.97873H14.8525V2.62158H15.9674C16.1011 2.62158 16.2097 2.73018 16.2097 2.86385Z" fill="#686868"/>
<path d="M15.5311 19.7656C15.6996 19.7656 15.8363 19.6289 15.8363 19.4604V8.33236H18.2859C18.9994 8.33236 19.5798 7.75182 19.5798 7.03838V1.52885C19.5798 0.81541 18.9994 0.234863 18.2859 0.234863H12.7763C12.0628 0.234863 11.4824 0.81541 11.4824 1.52885V7.03838C11.4824 7.75182 12.0628 8.33236 12.7763 8.33236H15.2259V19.4604C15.2259 19.6289 15.3626 19.7656 15.5311 19.7656ZM12.0928 7.03838V1.52885C12.0928 1.15186 12.3994 0.845215 12.7763 0.845215H18.2859C18.6628 0.845215 18.9694 1.15186 18.9694 1.52885V7.03838C18.9694 7.41537 18.6628 7.72201 18.2859 7.72201H12.7763C12.3994 7.72205 12.0928 7.41537 12.0928 7.03838Z" fill="#686868"/>
</g>
<defs>
<clipPath id="clip0_870_770">
<rect width="20" height="20" fill="white"/>
</clipPath>
</defs>
</svg>
