<svg width="20" height="20" viewBox="0 0 20 20" fill="none" xmlns="http://www.w3.org/2000/svg">
<g clip-path="url(#clip0_870_779)">
<path d="M19.671 12.3569H18.3532C18.171 12.3569 18.0238 12.5045 18.0238 12.6864H14.7292C14.6416 12.6864 14.5579 12.721 14.4963 12.7829L12.6405 14.6387L6.10684 13.5024C5.79353 13.4484 5.47331 13.5341 5.22918 13.7393C4.98572 13.9442 4.8457 14.2447 4.8457 14.5633C4.8457 14.9444 5.05029 15.3009 5.37974 15.4933L12.5667 19.6856C12.7344 19.7834 12.9215 19.8328 13.109 19.8325C13.2737 19.8325 13.4385 19.7946 13.591 19.7185L17.1132 17.9576H18.0238C18.0238 18.1395 18.171 18.2871 18.3532 18.2871H19.671C19.8532 18.2871 20.0005 18.1395 20.0005 17.9576V12.6864C20.0005 12.5045 19.8532 12.3569 19.671 12.3569ZM18.0238 17.2987H17.0354C16.9843 17.2987 16.9336 17.3106 16.8881 17.3333L13.2961 19.1295C13.169 19.1927 13.0204 19.1878 12.8988 19.1166L5.71216 14.9243C5.584 14.8496 5.50461 14.7112 5.50461 14.5633C5.50461 14.4397 5.55897 14.3231 5.65352 14.2434C5.74807 14.164 5.87194 14.1307 5.99417 14.1515L12.0706 15.2083L11.8037 15.4752C11.5659 15.7134 11.4347 16.03 11.4347 16.3667C11.4347 17.0625 12.0007 17.6282 12.6959 17.6282C13.0329 17.6282 13.3495 17.497 13.5877 17.2585L15.2916 15.5549L14.8258 15.0891L13.1218 16.793C13.0095 16.905 12.8547 16.9693 12.6959 16.9693C12.3638 16.9693 12.0936 16.6991 12.0936 16.3667C12.0936 16.2059 12.1562 16.0544 12.2699 15.9407L14.8656 13.3453H18.0238V17.2987ZM19.3416 17.6282H18.6827V13.0158H19.3416V17.6282Z" fill="#686868"/>
<path d="M11.7638 5.10938C10.6737 5.10938 9.78711 5.99593 9.78711 7.08608C9.78711 8.17624 10.6737 9.06279 11.7638 9.06279C12.854 9.06279 13.7405 8.17624 13.7405 7.08608C13.7405 5.99593 12.854 5.10938 11.7638 5.10938ZM11.7638 8.40389C11.037 8.40389 10.446 7.81285 10.446 7.08608C10.446 6.35931 11.037 5.76828 11.7638 5.76828C12.4906 5.76828 13.0816 6.35931 13.0816 7.08608C13.0816 7.81285 12.4906 8.40389 11.7638 8.40389Z" fill="#686868"/>
<path d="M18.0233 0.16748H5.50414C5.32196 0.16748 5.17469 0.315075 5.17469 0.496932V1.81474V3.13254H2.53908C2.45145 3.13254 2.36777 3.16713 2.30616 3.22907L0 5.53523L0.465844 6.00108L2.67547 3.79145H5.17469V4.7798V5.76815H3.52743V6.42706H5.50414H7.8103C8.17369 6.42706 8.4692 6.72257 8.4692 7.08596C8.4692 7.26156 8.40068 7.42694 8.27582 7.55147C8.15095 7.67601 7.98557 7.74486 7.8103 7.74486H5.50414C5.46 7.74486 5.41717 7.75376 5.3773 7.77056C5.33711 7.78736 5.3012 7.81141 5.27089 7.84172L4.28287 8.82974L4.74871 9.29559L5.17469 8.86961V9.39212V10.7099H0.232922V11.3688H5.50414H7.1514H16.376H18.0233C18.2055 11.3688 18.3527 11.2212 18.3527 11.0394V9.39212V4.7798V3.13254V1.81474V0.496932C18.3527 0.315075 18.2055 0.16748 18.0233 0.16748ZM5.83359 3.46199H6.78011C6.66085 3.92454 6.29581 4.28925 5.83359 4.40884V3.46199ZM5.83359 10.7099V9.76308C6.29581 9.88267 6.66085 10.2474 6.78011 10.7099H5.83359ZM17.6938 10.7099H16.7473C16.8666 10.2474 17.2316 9.88267 17.6938 9.76308V10.7099ZM17.6938 9.09232C16.8679 9.23168 16.2159 9.88399 16.0762 10.7099H7.4512C7.31184 9.88399 6.65953 9.232 5.83359 9.09232V8.40376H7.8103C8.1615 8.40376 8.4926 8.26638 8.74166 8.01732C8.99106 7.76825 9.12811 7.43748 9.12811 7.08596C9.12811 6.35919 8.53707 5.76815 7.8103 5.76815H5.83359V5.0796C6.65953 4.94024 7.31151 4.28793 7.4512 3.46199H16.0762C16.2156 4.28793 16.8679 4.93991 17.6938 5.0796V9.09232ZM17.6938 4.40884C17.2316 4.28925 16.8666 3.92454 16.7473 3.46199H17.6938V4.40884ZM17.6938 2.80309H16.376H7.1514H5.83359V2.14419H17.6938V2.80309ZM17.6938 1.48529H5.83359V0.826383H17.6938V1.48529Z" fill="#686868"/>
</g>
<defs>
<clipPath id="clip0_870_779">
<rect width="20" height="20" fill="white"/>
</clipPath>
</defs>
</svg>
