<svg width="20" height="20" viewBox="0 0 20 20" fill="none" xmlns="http://www.w3.org/2000/svg">
<g clip-path="url(#clip0_870_789)">
<path d="M11.25 17.5002H7.91667C7.68667 17.5002 7.5 17.3135 7.5 17.0835C7.5 16.8535 7.68667 16.6668 7.91667 16.6668H11.25C11.9392 16.6668 12.5 16.106 12.5 15.4168V11.2502C12.5 11.0202 12.6867 10.8335 12.9167 10.8335C13.1467 10.8335 13.3333 11.0202 13.3333 11.2502V15.4168C13.3333 16.5652 12.3992 17.5002 11.25 17.5002Z" fill="#686868"/>
<path d="M19.583 9.16683H11.2497C11.0197 9.16683 10.833 8.98016 10.833 8.75016C10.833 8.52016 11.0197 8.3335 11.2497 8.3335H19.583C19.813 8.3335 19.9997 8.52016 19.9997 8.75016C19.9997 8.98016 19.813 9.16683 19.583 9.16683Z" fill="#686868"/>
<path d="M6.66667 20C6.48333 20 6.30417 19.9692 6.135 19.9092L1.14333 18.245C0.46 18.0175 0 17.3825 0 16.6667V1.66667C0 0.7475 0.7475 0 1.66667 0C1.85167 0 2.03167 0.0308333 2.19917 0.0916667L7.19 1.755C7.87333 1.98167 8.33333 2.61667 8.33333 3.33333V18.3333C8.33333 19.2525 7.58583 20 6.66667 20ZM1.66667 0.833333C1.20667 0.833333 0.833333 1.2075 0.833333 1.66667V16.6667C0.833333 17.0233 1.06333 17.34 1.40667 17.455L6.40667 19.1217C6.95333 19.3158 7.5 18.8783 7.5 18.3333V3.33333C7.5 2.97583 7.27 2.65917 6.92667 2.54583L1.92667 0.879167C1.84083 0.848333 1.75333 0.833333 1.66667 0.833333Z" fill="#686868"/>
<path d="M12.9167 6.66667C12.6867 6.66667 12.5 6.48 12.5 6.25V2.08333C12.5 1.39417 11.9392 0.833333 11.25 0.833333H1.66667C1.43667 0.833333 1.25 0.646667 1.25 0.416667C1.25 0.186667 1.43667 0 1.66667 0H11.25C12.3992 0 13.3333 0.935 13.3333 2.08333V6.25C13.3333 6.48 13.1467 6.66667 12.9167 6.66667Z" fill="#686868"/>
<path d="M16.2499 12.5C16.1432 12.5 16.0365 12.4592 15.9549 12.3783C15.7924 12.2158 15.7924 11.9517 15.9549 11.7892L18.9932 8.75084L15.9549 5.71251C15.7924 5.55001 15.7924 5.28584 15.9549 5.12334C16.1174 4.96084 16.3816 4.96084 16.5441 5.12334L19.8774 8.45667C20.0399 8.61917 20.0399 8.88334 19.8774 9.04584L16.5441 12.3792C16.4632 12.4592 16.3565 12.5 16.2499 12.5Z" fill="#686868"/>
</g>
<defs>
<clipPath id="clip0_870_789">
<rect width="20" height="20" fill="white"/>
</clipPath>
</defs>
</svg>
