<svg width="20" height="20" viewBox="0 0 20 20" fill="none" xmlns="http://www.w3.org/2000/svg">
<g clip-path="url(#clip0_870_800)">
<path d="M2.33908 19.236C2.58236 19.4466 2.84161 19.6692 3.11387 19.9131C3.2401 20.0252 3.43018 20.0252 3.55641 19.9131C3.82867 19.6709 4.08961 19.4466 4.3312 19.236C4.7914 18.8361 5.19762 18.4838 5.5412 18.1453C7.35018 19.9546 10.0716 20.4949 12.4345 19.5139C14.7975 18.5328 16.336 16.224 16.3316 13.6655V6.33411C16.3316 6.15417 16.3213 5.97486 16.3063 5.79593C16.3523 5.83658 16.3966 5.87491 16.4436 5.9169C16.5698 6.02898 16.7599 6.02898 16.8861 5.9169C17.1584 5.67463 17.4177 5.45035 17.6609 5.23974C19.0679 4.02208 19.9973 3.21728 19.9973 2.00528C20.0244 1.49546 19.8456 0.996138 19.5009 0.619489C19.1563 0.242873 18.6747 0.0205199 18.1645 0.0024674C17.5842 0.0051164 17.035 0.26498 16.6649 0.711942C16.2948 0.26498 15.7456 0.0051164 15.1653 0.0024674C14.4556 0.00953141 13.8163 0.432685 13.5324 1.08316C12.4906 0.375486 11.2594 -0.00116271 10 0.0024674C6.50475 0.00632644 3.67225 2.83883 3.66839 6.33411V13.6655C3.66927 13.8994 3.68353 14.133 3.71104 14.3653C3.57322 14.4651 3.44715 14.5801 3.33514 14.7082C2.96506 14.2612 2.41584 14.0013 1.83554 13.9987C1.32533 14.0167 0.843768 14.2391 0.499104 14.6157C0.154439 14.9924 -0.0244504 15.4917 0.00269372 16.0015C0.00269372 17.2135 0.932134 18.0183 2.33908 19.236ZM15.6651 13.6655C15.6719 15.5276 14.7599 17.2733 13.2274 18.3312C11.695 19.3891 9.73935 19.6232 8.00052 18.9567V17.6644C8.00052 13.4595 10.3496 12.1822 12.6209 10.9469C13.8163 10.2967 14.97 9.66887 15.6652 8.65316L15.6651 13.6655ZM9.94303 3.00402C10.3622 3.16162 10.6468 3.55406 10.6665 4.00141C10.6665 4.18547 10.5173 4.33467 10.3332 4.33467C10.1492 4.33467 10 4.18547 10 4.00141C10 3.81736 9.8508 3.66816 9.66675 3.66816C9.48269 3.66816 9.33349 3.81736 9.33349 4.00141C9.33349 4.55355 9.78108 5.00113 10.3332 5.00113C10.8854 5.00113 11.3329 4.55355 11.3329 4.00141C11.3363 3.72206 11.2674 3.44656 11.133 3.20164C12.1443 3.56747 12.917 4.39893 13.2077 5.43436C13.2538 5.59405 13.4095 5.69629 13.5743 5.67496C13.8324 5.63817 14.0883 5.75528 14.2292 5.97469C14.37 6.1941 14.37 6.47548 14.2292 6.69489C14.0883 6.9143 13.8324 7.03141 13.5743 6.99462C13.4085 6.97173 13.2511 7.07429 13.2051 7.23522C12.8007 8.67213 11.49 9.66482 9.99728 9.66482C8.50452 9.66482 7.19392 8.67213 6.78947 7.23522C6.74457 7.07347 6.58635 6.97039 6.42025 6.99462C6.16212 7.03141 5.90627 6.9143 5.76539 6.69489C5.62453 6.47548 5.62453 6.1941 5.76539 5.97469C5.90624 5.75528 6.16212 5.63817 6.42025 5.67496C6.58511 5.69642 6.74091 5.59415 6.78682 5.43436C7.18646 4.0159 8.46959 3.02786 9.94303 3.00402ZM7.67329 9.58322C9.06333 10.5829 10.9366 10.5829 12.3267 9.58322C12.5482 9.69687 12.7515 9.84289 12.9299 10.0164C12.7256 10.1311 12.516 10.245 12.3027 10.361C11.4966 10.7743 10.7247 11.2513 9.99467 11.7876C9.2689 11.2505 8.50069 10.7733 7.69762 10.3607C7.48436 10.2447 7.27473 10.1304 7.07046 10.0158C7.24863 9.84224 7.45185 9.69644 7.67329 9.58322ZM15.1653 0.668969C15.6747 0.692385 16.1325 0.986915 16.365 1.44078C16.4209 1.55534 16.5374 1.62791 16.6649 1.62771C16.7923 1.62797 16.9087 1.55553 16.9648 1.4411C17.1972 0.987144 17.655 0.692483 18.1645 0.668969C18.831 0.668969 19.3308 1.24348 19.3308 2.00528C19.3308 2.91271 18.5381 3.59883 17.2251 4.73587C17.0464 4.8905 16.8585 5.05212 16.6649 5.22306C16.4706 5.05212 16.2833 4.88981 16.1047 4.73587C14.7917 3.59886 13.9989 2.91271 13.9989 2.00528C13.9989 1.24348 14.5005 0.668969 15.1653 0.668969ZM10 0.668969C11.2044 0.665928 12.3777 1.0516 13.3454 1.76867C13.3378 1.84598 13.3324 1.92463 13.3324 2.00459C13.3324 3.17659 14.2029 3.96871 15.5318 5.12076C15.6199 5.51923 15.6645 5.92603 15.6651 6.33411C15.6651 8.01433 14.7537 8.90508 13.5194 9.66989C13.3266 9.45764 13.1056 9.27283 12.8626 9.12069C13.2684 8.70696 13.5786 8.2093 13.7713 7.66276C14.4636 7.6068 14.9969 7.02867 14.9969 6.33411C14.9969 5.63954 14.4636 5.06141 13.7713 5.00545C13.2076 3.40562 11.6959 2.33545 9.99967 2.33545C8.30343 2.33545 6.79173 3.40562 6.22801 5.00545C5.53574 5.06141 5.00241 5.63954 5.00241 6.33411C5.00241 7.02867 5.53571 7.6068 6.22801 7.66276C6.4211 8.21019 6.73198 8.70859 7.13878 9.12269C6.89612 9.2744 6.67576 9.45914 6.48395 9.67155C5.24795 8.90642 4.33486 8.01567 4.33486 6.33411C4.33836 3.20678 6.8727 0.672469 10 0.668969ZM4.33486 13.6655V8.65247C5.03001 9.66855 6.1837 10.296 7.37905 10.9462C8.10671 11.3228 8.80644 11.7511 9.47281 12.2278C8.24816 13.3535 7.33405 14.9604 7.33405 17.6644V18.6548C6.83993 18.3899 6.388 18.053 5.99307 17.6551C6.41207 17.2046 6.65195 16.6165 6.66755 16.0015C6.6947 15.4917 6.51584 14.9924 6.17117 14.6157C5.82651 14.2391 5.34495 14.0167 4.83474 13.9987C4.67079 13.9985 4.5075 14.0193 4.34886 14.0607C4.34019 13.9321 4.33486 13.7988 4.33486 13.6655ZM1.83554 14.6652C2.34494 14.6886 2.80272 14.9831 3.03521 15.437C3.09091 15.551 3.20655 15.6235 3.33347 15.6239C3.46092 15.6242 3.57731 15.5518 3.6334 15.4373C3.86608 14.9828 4.32469 14.6881 4.83474 14.6652C5.50124 14.6652 6.00108 15.2397 6.00108 16.0015C6.00108 16.9089 5.20831 17.595 3.89532 18.7321C3.71669 18.8867 3.52875 19.0483 3.33514 19.2193C3.14085 19.0483 2.95358 18.886 2.77496 18.7321C1.46197 17.595 0.669196 16.9089 0.669196 16.0015C0.669196 15.2397 1.17074 14.6652 1.83554 14.6652Z" fill="#686868"/>
</g>
<defs>
<clipPath id="clip0_870_800">
<rect width="20" height="20" fill="white"/>
</clipPath>
</defs>
</svg>
