<svg width="20" height="20" viewBox="0 0 20 20" fill="none" xmlns="http://www.w3.org/2000/svg">
<g clip-path="url(#clip0_870_805)">
<path d="M10 2.96875C10.2588 2.96875 10.4688 2.75879 10.4688 2.5V0.625C10.4688 0.366211 10.2588 0.15625 10 0.15625C9.74121 0.15625 9.53125 0.366211 9.53125 0.625V2.5C9.53125 2.75879 9.74121 2.96875 10 2.96875Z" fill="#686868"/>
<path d="M10 17.0312C9.74121 17.0312 9.53125 17.2412 9.53125 17.5V19.375C9.53125 19.6338 9.74121 19.8438 10 19.8438C10.2588 19.8438 10.4688 19.6338 10.4688 19.375V17.5C10.4688 17.2412 10.2588 17.0312 10 17.0312Z" fill="#686868"/>
<path d="M15.3244 8.04333L11.9357 7.55078L10.4202 4.4801C10.2615 4.16028 9.73786 4.16028 9.57917 4.4801L8.06366 7.55078L4.67499 8.04333C4.49799 8.06897 4.35151 8.19287 4.29657 8.36255C4.24103 8.53223 4.28742 8.71838 4.41498 8.8429L6.86738 11.233L6.28876 14.6083C6.25886 14.7841 6.33088 14.9623 6.47553 15.0667C6.61835 15.1716 6.81061 15.1851 6.96869 15.1027L9.9997 13.509L13.0307 15.1027C13.0991 15.1387 13.1741 15.1564 13.2486 15.1564C13.3456 15.1564 13.4427 15.1265 13.5239 15.0667C13.6685 14.9623 13.7405 14.7841 13.7106 14.6083L13.132 11.233L15.5844 8.8429C15.712 8.71838 15.7584 8.53223 15.7028 8.36255C15.6479 8.19287 15.5014 8.06897 15.3244 8.04333ZM12.3013 10.7338C12.1909 10.8412 12.1402 10.9968 12.1664 11.1488L12.626 13.8307L10.2176 12.5642C10.1498 12.5282 10.0748 12.5105 9.9997 12.5105C9.92463 12.5105 9.84955 12.5282 9.7818 12.5642L7.37336 13.8307L7.83295 11.1488C7.8592 10.9968 7.80854 10.8412 7.69806 10.7338L5.74921 8.83435L8.44208 8.44312C8.59528 8.42114 8.72712 8.32532 8.79548 8.18677L9.9997 5.74658L11.2039 8.18677C11.2723 8.32532 11.4041 8.42114 11.5573 8.44312L14.2502 8.83435L12.3013 10.7338Z" fill="#686868"/>
<path d="M19.375 9.53125H18.125C17.8662 9.53125 17.6562 9.74121 17.6562 10C17.6562 10.2588 17.8662 10.4688 18.125 10.4688H19.375C19.6338 10.4688 19.8438 10.2588 19.8438 10C19.8438 9.74121 19.6338 9.53125 19.375 9.53125Z" fill="#686868"/>
<path d="M2.34375 10C2.34375 9.74121 2.13379 9.53125 1.875 9.53125H0.625C0.366211 9.53125 0.15625 9.74121 0.15625 10C0.15625 10.2588 0.366211 10.4688 0.625 10.4688H1.875C2.13379 10.4688 2.34375 10.2588 2.34375 10Z" fill="#686868"/>
<path d="M5.53158 3.19771C5.61825 3.34785 5.77572 3.43208 5.93807 3.43208C6.01742 3.43208 6.09799 3.41194 6.17184 3.36922C6.39584 3.23982 6.47274 2.95296 6.34335 2.72896L5.71835 1.6468C5.58956 1.42342 5.30331 1.3459 5.07809 1.4753C4.85409 1.60469 4.77719 1.89156 4.90658 2.11555L5.53158 3.19771Z" fill="#686868"/>
<path d="M14.4683 16.8025C14.339 16.5797 14.0527 16.5004 13.8281 16.631C13.6041 16.7604 13.5272 17.0472 13.6566 17.2712L14.2816 18.3534C14.3683 18.5035 14.5257 18.5878 14.6881 18.5878C14.7674 18.5878 14.848 18.5676 14.9218 18.5249C15.1458 18.3955 15.2227 18.1086 15.0933 17.8846L14.4683 16.8025Z" fill="#686868"/>
<path d="M13.8281 3.36922C13.9019 3.41194 13.9825 3.43208 14.0619 3.43208C14.2242 3.43208 14.3817 3.34785 14.4683 3.19771L15.0933 2.11555C15.2227 1.89156 15.1458 1.60469 14.9218 1.4753C14.696 1.3459 14.4104 1.42342 14.2816 1.6468L13.6566 2.72896C13.5272 2.95296 13.6041 3.23982 13.8281 3.36922Z" fill="#686868"/>
<path d="M6.17184 16.631C5.94662 16.5004 5.66098 16.5797 5.53158 16.8025L4.90658 17.8846C4.77719 18.1086 4.85409 18.3955 5.07809 18.5249C5.15194 18.5676 5.23251 18.5878 5.31185 18.5878C5.47421 18.5878 5.63168 18.5035 5.71835 18.3534L6.34335 17.2712C6.47274 17.0472 6.39584 16.7604 6.17184 16.631Z" fill="#686868"/>
<path d="M3.73873 5.84413L2.1152 4.90663C1.88998 4.77602 1.60372 4.85414 1.47494 5.07814C1.34555 5.30214 1.42245 5.58901 1.64645 5.7184L3.26998 6.6559C3.34384 6.69863 3.4244 6.71877 3.50375 6.71877C3.6661 6.71877 3.82357 6.63454 3.91024 6.48439C4.03964 6.26039 3.96273 5.97353 3.73873 5.84413Z" fill="#686868"/>
<path d="M18.353 14.2816L16.7295 13.3441C16.5048 13.2147 16.2174 13.2916 16.0892 13.5156C15.9598 13.7396 16.0367 14.0265 16.2607 14.1558L17.8842 15.0933C17.9581 15.1361 18.0387 15.1562 18.118 15.1562C18.2804 15.1562 18.4378 15.072 18.5245 14.9218C18.6539 14.6978 18.577 14.411 18.353 14.2816Z" fill="#686868"/>
<path d="M16.4957 6.71877C16.575 6.71877 16.6556 6.69863 16.7295 6.6559L18.353 5.7184C18.577 5.58901 18.6539 5.30214 18.5245 5.07814C18.3957 4.85414 18.1095 4.77602 17.8842 4.90663L16.2607 5.84413C16.0367 5.97353 15.9598 6.26039 16.0892 6.48439C16.1759 6.63454 16.3333 6.71877 16.4957 6.71877Z" fill="#686868"/>
<path d="M3.26998 13.3441L1.64645 14.2816C1.42245 14.411 1.34555 14.6978 1.47494 14.9218C1.56161 15.072 1.71908 15.1562 1.88143 15.1562C1.96078 15.1562 2.04135 15.1361 2.1152 15.0933L3.73873 14.1558C3.96273 14.0265 4.03964 13.7396 3.91024 13.5156C3.78085 13.2916 3.49398 13.2147 3.26998 13.3441Z" fill="#686868"/>
</g>
<defs>
<clipPath id="clip0_870_805">
<rect width="20" height="20" fill="white"/>
</clipPath>
</defs>
</svg>
